<svg width="50" height="50" viewBox="0 0 50 50" fill="none" xmlns="http://www.w3.org/2000/svg">
<path d="M26.8325 25.0001L34.6203 17.2122C35.1271 16.7056 35.1271 15.8865 34.6203 15.3799C34.1137 14.8734 33.2947 14.8734 32.7881 15.3799L25.0001 23.1679L17.2123 15.3799C16.7055 14.8734 15.8867 14.8734 15.3801 15.3799C14.8733 15.8865 14.8733 16.7056 15.3801 17.2122L23.1679 25.0001L15.3801 32.7881C14.8733 33.2947 14.8733 34.1138 15.3801 34.6204C15.6326 34.8731 15.9645 35 16.2962 35C16.6279 35 16.9596 34.8731 17.2123 34.6204L25.0001 26.8324L32.7881 34.6204C33.0408 34.8731 33.3725 35 33.7042 35C34.0359 35 34.3676 34.8731 34.6203 34.6204C35.1271 34.1138 35.1271 33.2947 34.6203 32.7881L26.8325 25.0001Z" fill="white"/>
<path d="M26.8325 25.0001L34.6203 17.2122C35.1271 16.7056 35.1271 15.8865 34.6203 15.3799C34.1137 14.8734 33.2947 14.8734 32.7881 15.3799L25.0001 23.1679L17.2123 15.3799C16.7055 14.8734 15.8867 14.8734 15.3801 15.3799C14.8733 15.8865 14.8733 16.7056 15.3801 17.2122L23.1679 25.0001L15.3801 32.7881C14.8733 33.2947 14.8733 34.1138 15.3801 34.6204C15.6326 34.8731 15.9645 35 16.2962 35C16.6279 35 16.9596 34.8731 17.2123 34.6204L25.0001 26.8324L32.7881 34.6204C33.0408 34.8731 33.3725 35 33.7042 35C34.0359 35 34.3676 34.8731 34.6203 34.6204C35.1271 34.1138 35.1271 33.2947 34.6203 32.7881L26.8325 25.0001Z" fill="white"/>
<rect x="1" y="1" width="48" height="48" rx="24" stroke="white" stroke-width="2"/>
</svg>
