<svg width="12" height="12" viewBox="0 0 12 12" fill="none" xmlns="http://www.w3.org/2000/svg">
<g id="doctor-consultation 1" clip-path="url(#clip0_408_1190)">
<g id="Group">
<path id="Vector" d="M9.18753 3.26367C9.77002 3.26367 10.2422 2.79147 10.2422 2.20898C10.2422 1.6265 9.77002 1.1543 9.18753 1.1543C8.60504 1.1543 8.13284 1.6265 8.13284 2.20898C8.13284 2.79147 8.60504 3.26367 9.18753 3.26367Z" stroke="#258AFF" stroke-width="0.44895" stroke-miterlimit="10"/>
<path id="Vector_2" d="M2.81256 3.41602C3.39505 3.41602 3.86725 2.94382 3.86725 2.36133C3.86725 1.77884 3.39505 1.30664 2.81256 1.30664C2.23007 1.30664 1.75787 1.77884 1.75787 2.36133C1.75787 2.94382 2.23007 3.41602 2.81256 3.41602Z" stroke="#258AFF" stroke-width="0.44895" stroke-miterlimit="10"/>
<path id="Vector_3" d="M6.19925 6.07617L6.02347 4.66992H8.36722L8.543 6.07617" stroke="#258AFF" stroke-width="0.44895" stroke-miterlimit="10"/>
<path id="Vector_4" d="M7.42972 4.66992C7.42972 3.89327 8.05932 3.26367 8.83597 3.26367H9.53909C10.3157 3.26367 10.9453 3.89327 10.9453 4.66992V6.07617" stroke="#258AFF" stroke-width="0.44895" stroke-miterlimit="10"/>
<path id="Vector_5" d="M6.67975 10.8457V8.18555C6.67975 7.79721 6.36496 7.48242 5.97662 7.48242H3.16412" stroke="#258AFF" stroke-width="0.44895" stroke-miterlimit="10"/>
<path id="Vector_6" d="M0.351624 11.1973V5.37305H3.16412V11.1973" stroke="#258AFF" stroke-width="0.44895" stroke-miterlimit="10"/>
<path id="Vector_7" d="M0.351624 8.88867H5.2735V10.8457H11.6485V6.07617H4.57037V4.82227C4.57037 4.04562 3.94077 3.41602 3.16412 3.41602H2.461C1.68435 3.41602 1.05475 4.04562 1.05475 4.82227V5.37305" stroke="#258AFF" stroke-width="0.44895" stroke-miterlimit="10"/>
<path id="Vector_8" d="M6.67975 8.46094H9.14069" stroke="#258AFF" stroke-width="0.44895" stroke-miterlimit="10"/>
<path id="Vector_9" d="M8.086 7.40625V9.51562" stroke="#258AFF" stroke-width="0.44895" stroke-miterlimit="10"/>
<path id="Vector_10" d="M5.97662 6.07617V7.48242" stroke="#258AFF" stroke-width="0.44895" stroke-miterlimit="10"/>
</g>
</g>
<defs>
<clipPath id="clip0_408_1190">
<rect width="12" height="12" fill="white"/>
</clipPath>
</defs>
</svg>
