<svg width="24" height="25" viewBox="0 0 24 25" fill="none" xmlns="http://www.w3.org/2000/svg">
<path d="M11.6667 5.9303C11.4899 5.9303 11.3203 6.00054 11.1953 6.12556C11.0702 6.25058 11 6.42015 11 6.59696V13.657L8.80667 11.457C8.68113 11.3314 8.51087 11.2609 8.33333 11.2609C8.1558 11.2609 7.98554 11.3314 7.86 11.457C7.73447 11.5825 7.66394 11.7528 7.66394 11.9303C7.66394 12.1078 7.73447 12.2781 7.86 12.4036L11.1933 15.737C11.2553 15.7994 11.329 15.849 11.4103 15.8829C11.4915 15.9167 11.5787 15.9342 11.6667 15.9342C11.7547 15.9342 11.8418 15.9167 11.9231 15.8829C12.0043 15.849 12.078 15.7994 12.14 15.737L15.4733 12.4036C15.5355 12.3415 15.5848 12.2677 15.6184 12.1865C15.6521 12.1052 15.6694 12.0182 15.6694 11.9303C15.6694 11.8424 15.6521 11.7553 15.6184 11.6741C15.5848 11.5929 15.5355 11.5191 15.4733 11.457C15.4112 11.3948 15.3374 11.3455 15.2562 11.3119C15.175 11.2782 15.0879 11.2609 15 11.2609C14.9121 11.2609 14.8251 11.2782 14.7438 11.3119C14.6626 11.3455 14.5888 11.3948 14.5267 11.457L12.3333 13.657V6.59696C12.3333 6.42015 12.2631 6.25058 12.1381 6.12556C12.013 6.00054 11.8435 5.9303 11.6667 5.9303Z" fill="#7C8087"/>
<path d="M17.6667 16.9341H5.66667C5.48986 16.9341 5.32029 17.0044 5.19526 17.1294C5.07024 17.2544 5 17.424 5 17.6008C5 17.7776 5.07024 17.9472 5.19526 18.0722C5.32029 18.1972 5.48986 18.2675 5.66667 18.2675H17.6667C17.8435 18.2675 18.013 18.1972 18.1381 18.0722C18.2631 17.9472 18.3333 17.7776 18.3333 17.6008C18.3333 17.424 18.2631 17.2544 18.1381 17.1294C18.013 17.0044 17.8435 16.9341 17.6667 16.9341Z" fill="#7C8087"/>
</svg>
