<svg width="12" height="12" viewBox="0 0 12 12" fill="none" xmlns="http://www.w3.org/2000/svg">
<g id="hospital-building 1">
<g clip-path="url(#clip0_408_1165)">
<g id="Group">
<path id="Vector" d="M6.35297 1.41174H5.64709V1.94116H5.11768V2.64704H5.64709V3.17645H6.35297V2.64704H6.88238V1.94116H6.35297V1.41174Z" fill="#BF1B39"/>
<path id="Vector_2" d="M4.23532 6.70593H4.9412V7.41182H4.23532V6.70593Z" fill="#BF1B39"/>
<path id="Vector_3" d="M5.64706 6.70593H6.35295V7.41182H5.64706V6.70593Z" fill="#BF1B39"/>
<path id="Vector_4" d="M7.05896 6.70593H7.76484V7.41182H7.05896V6.70593Z" fill="#BF1B39"/>
<path id="Vector_5" d="M4.23532 5.29413H4.9412V6.00001H4.23532V5.29413Z" fill="#BF1B39"/>
<path id="Vector_6" d="M5.64706 5.29413H6.35295V6.00001H5.64706V5.29413Z" fill="#BF1B39"/>
<path id="Vector_7" d="M7.05896 5.29413H7.76484V6.00001H7.05896V5.29413Z" fill="#BF1B39"/>
<path id="Vector_8" d="M4.23532 3.88239H4.9412V4.58827H4.23532V3.88239Z" fill="#BF1B39"/>
<path id="Vector_9" d="M5.64706 3.88239H6.35295V4.58827H5.64706V3.88239Z" fill="#BF1B39"/>
<path id="Vector_10" d="M7.05896 3.88239H7.76484V4.58827H7.05896V3.88239Z" fill="#BF1B39"/>
<path id="Vector_11" d="M9.45425 4.23529C9.30084 4.23529 9.17647 4.11093 9.17647 3.95752V0.277778C9.17647 0.124365 9.05211 0 8.89869 0H3.10131C2.94789 0 2.82353 0.124365 2.82353 0.277778V3.95752C2.82353 4.11093 2.69916 4.23529 2.54575 4.23529H0.277778C0.124365 4.23529 0 4.35966 0 4.51307V11.7222C0 11.8756 0.124365 12 0.277778 12H11.7222C11.8756 12 12 11.8756 12 11.7222V4.51307C12 4.35966 11.8756 4.23529 11.7222 4.23529H9.45425ZM11.0163 4.94118C11.1698 4.94118 11.2941 5.06554 11.2941 5.21895V9.60458C11.2941 9.75799 11.1698 9.88235 11.0163 9.88235H9.45425C9.30084 9.88235 9.17647 9.75799 9.17647 9.60458V5.21895C9.17647 5.06554 9.30084 4.94118 9.45425 4.94118H11.0163ZM2.54575 4.94118C2.69916 4.94118 2.82353 5.06554 2.82353 5.21895V9.60458C2.82353 9.75799 2.69916 9.88235 2.54575 9.88235H0.98366C0.830248 9.88235 0.705882 9.75799 0.705882 9.60458V5.21895C0.705882 5.06554 0.830248 4.94118 0.98366 4.94118H2.54575ZM0.98366 11.2941C0.830248 11.2941 0.705882 11.1698 0.705882 11.0163V10.866C0.705882 10.7126 0.830248 10.5882 0.98366 10.5882H2.54575C2.69916 10.5882 2.82353 10.7126 2.82353 10.866V11.0163C2.82353 11.1698 2.69916 11.2941 2.54575 11.2941H0.98366ZM5.5719 11.2941C5.41848 11.2941 5.29412 11.1698 5.29412 11.0163V9.45425C5.29412 9.30084 5.41848 9.17647 5.5719 9.17647H6.4281C6.58152 9.17647 6.70588 9.30084 6.70588 9.45425V11.0163C6.70588 11.1698 6.58152 11.2941 6.4281 11.2941H5.5719ZM8.47059 11.0163C8.47059 11.1698 8.34622 11.2941 8.19281 11.2941H7.68954C7.53613 11.2941 7.41176 11.1698 7.41176 11.0163V8.74837C7.41176 8.59495 7.2874 8.47059 7.13399 8.47059H4.86601C4.7126 8.47059 4.58824 8.59495 4.58824 8.74837V11.0163C4.58824 11.1698 4.46387 11.2941 4.31046 11.2941H3.80719C3.65378 11.2941 3.52941 11.1728 3.52941 11.0194C3.52941 9.52883 3.52941 2.50694 3.52941 0.978051C3.52941 0.824638 3.65378 0.705882 3.80719 0.705882H8.19281C8.34622 0.705882 8.47059 0.830248 8.47059 0.98366V11.0163ZM9.45425 11.2941C9.30084 11.2941 9.17647 11.1698 9.17647 11.0163V10.866C9.17647 10.7126 9.30084 10.5882 9.45425 10.5882H11.0163C11.1698 10.5882 11.2941 10.7126 11.2941 10.866V11.0163C11.2941 11.1698 11.1698 11.2941 11.0163 11.2941H9.45425Z" fill="#BF1B39"/>
<path id="Vector_12" d="M9.88239 5.64709H10.5883V6.35298H9.88239V5.64709Z" fill="#BF1B39"/>
<path id="Vector_13" d="M9.88239 7.05884H10.5883V7.76472H9.88239V7.05884Z" fill="#BF1B39"/>
<path id="Vector_14" d="M9.88239 8.47058H10.5883V9.17646H9.88239V8.47058Z" fill="#BF1B39"/>
<path id="Vector_15" d="M1.41177 5.64709H2.11766V6.35298H1.41177V5.64709Z" fill="#BF1B39"/>
<path id="Vector_16" d="M1.41177 7.05884H2.11766V7.76472H1.41177V7.05884Z" fill="#BF1B39"/>
<path id="Vector_17" d="M1.41177 8.47058H2.11766V9.17646H1.41177V8.47058Z" fill="#BF1B39"/>
</g>
</g>
</g>
<defs>
<clipPath id="clip0_408_1165">
<rect width="12" height="12" fill="white"/>
</clipPath>
</defs>
</svg>
