<svg width="430" height="424" viewBox="0 0 430 424" fill="none" xmlns="http://www.w3.org/2000/svg">
<path d="M439 324.274H-16V324.486H439V324.274Z" fill="#EBEBEB"/>
<path d="M393.41 337.923H363.269V338.135H393.41V337.923Z" fill="#EBEBEB"/>
<path d="M285.41 340.224H277.5V340.436H285.41V340.224Z" fill="#EBEBEB"/>
<path d="M362.358 330.048H344.893V330.26H362.358V330.048Z" fill="#EBEBEB"/>
<path d="M71.0433 331.473H31.7377V331.685H71.0433V331.473Z" fill="#EBEBEB"/>
<path d="M84.909 331.473H79.146V331.685H84.909V331.473Z" fill="#EBEBEB"/>
<path d="M188.884 335.054H103.639V335.266H188.884V335.054Z" fill="#EBEBEB"/>
<path d="M199.683 286.454H23.9626C21.0988 286.454 18.7683 284.283 18.7683 281.614V51.4397C18.7683 48.771 21.0988 46.5993 23.9626 46.5993H199.683C202.546 46.5993 204.876 48.771 204.876 51.4397V281.614C204.876 284.283 202.546 286.454 199.683 286.454ZM23.9626 46.8122C21.2235 46.8122 18.9958 48.8881 18.9958 51.4405V281.615C18.9958 284.167 21.2235 286.243 23.9626 286.243H199.683C202.421 286.243 204.649 284.167 204.649 281.615V51.4397C204.649 48.8881 202.421 46.8113 199.683 46.8113L23.9626 46.8122Z" fill="#EBEBEB"/>
<path d="M396.512 286.454H220.793C217.929 286.454 215.6 284.283 215.6 281.614V51.4397C215.6 48.771 217.93 46.5993 220.793 46.5993H396.512C399.377 46.5993 401.706 48.771 401.706 51.4397V281.614C401.707 284.283 399.377 286.454 396.512 286.454ZM220.793 46.8122C218.055 46.8122 215.827 48.8881 215.827 51.4405V281.615C215.827 284.167 218.055 286.243 220.793 286.243H396.512C399.251 286.243 401.479 284.167 401.479 281.615V51.4397C401.479 48.8881 399.251 46.8113 396.512 46.8113L220.793 46.8122Z" fill="#EBEBEB"/>
<path d="M119.749 202.137L119.749 113.349L44.7563 113.349L44.7563 202.137H119.749Z" fill="#E6E6E6"/>
<path d="M46.4646 200.545H118.042L118.042 114.94L46.4646 114.94L46.4646 200.545Z" fill="#F0F0F0"/>
<path d="M64.9026 155.074C67.6781 157.931 68.3697 152.257 68.3697 152.257L76.3031 139.699L78.0284 152.591L72.0679 192.54C72.0679 192.54 66.6025 194.052 66.2521 194.911C65.9099 195.763 75.6115 195.993 76.6534 194.911C77.6863 193.829 75.6115 192.54 75.6115 192.54L83.118 159.515L83.2373 160.04L90.6246 192.54C90.6246 192.54 88.5498 193.829 89.5918 194.911C90.6246 195.993 100.334 195.763 99.9849 194.911C99.6437 194.051 94.1782 192.54 94.1782 192.54L88.2177 152.591L89.934 139.699L97.8673 152.257C97.8673 152.257 98.5589 157.931 101.334 155.074C104.11 152.225 99.2505 149.638 99.2505 149.638L90.6255 135.696L85.869 134.16L84.8188 132.927C84.8188 132.927 90.9249 122.717 83.2391 122.517V122.501C83.1963 122.501 83.1626 122.509 83.1199 122.509C83.0771 122.509 83.0425 122.501 83.0089 122.501V122.517C75.323 122.717 81.4209 132.927 81.4209 132.927L80.3708 134.16L75.6142 135.696L66.9892 149.638C66.9865 149.638 62.1362 152.225 64.9026 155.074Z" fill="#FAFAFA"/>
<path d="M83.2382 122.517V160.039L90.6255 192.539C90.6255 192.539 88.5507 193.828 89.5927 194.91C90.6255 195.992 100.335 195.762 99.9858 194.91C99.6445 194.05 94.1791 192.539 94.1791 192.539L88.2186 152.59L89.9349 139.698L97.8682 152.256C97.8682 152.256 98.5598 157.93 101.335 155.073C104.111 152.224 99.2514 149.637 99.2514 149.637L90.6264 135.695L85.8699 134.16L84.8197 132.926C84.8179 132.927 90.924 122.717 83.2382 122.517Z" fill="#E6E6E6"/>
<path d="M57.5004 128.507H67.4103V124.908H57.5004V128.507Z" fill="#E6E6E6"/>
<path d="M54.14 144.686H64.0499V141.087H54.14V144.686Z" fill="#E6E6E6"/>
<path d="M101.194 161.676H111.104V158.077H101.194V161.676Z" fill="#E6E6E6"/>
<path d="M97.2355 128.37H107.145V124.772H97.2355V128.37Z" fill="#E6E6E6"/>
<path d="M57.5004 167.646H67.4103V164.047H57.5004V167.646Z" fill="#E6E6E6"/>
<path d="M98.4777 181.412H108.388V177.813H98.4777V181.412Z" fill="#E6E6E6"/>
<path d="M52.5453 185.01H62.4552V181.412H52.5453V185.01Z" fill="#E6E6E6"/>
<path d="M127.287 112.927V202.558H199.714V112.927H127.287Z" fill="#E6E6E6"/>
<path d="M198.004 114.519H128.994V200.967H198.004V114.519Z" fill="#F5F5F5"/>
<path d="M198.004 114.519H128.994V136.006H198.004V114.519Z" fill="#FAFAFA"/>
<path d="M198.004 155.885H128.994V179.511H198.004V155.885Z" fill="#FAFAFA"/>
<path d="M144.058 130.627C147.812 129.802 150.136 126.297 149.25 122.799C148.363 119.301 144.602 117.135 140.849 117.961C137.095 118.787 134.771 122.292 135.657 125.79C136.544 129.287 140.305 131.453 144.058 130.627Z" fill="#F5F5F5"/>
<path d="M188.226 152.255C192.054 151.816 194.775 148.569 194.303 145.001C193.832 141.434 190.347 138.899 186.519 139.338C182.691 139.777 179.97 143.025 180.441 146.592C180.913 150.159 184.398 152.695 188.226 152.255Z" fill="#FAFAFA"/>
<path d="M148.422 170.272C149.308 166.774 146.984 163.269 143.231 162.444C139.477 161.618 135.716 163.784 134.83 167.281C133.943 170.779 136.268 174.284 140.021 175.11C143.775 175.936 147.536 173.77 148.422 170.272Z" fill="#F5F5F5"/>
<path d="M191.478 194.856C194.206 192.315 194.206 188.195 191.478 185.653C188.751 183.112 184.33 183.112 181.603 185.653C178.876 188.195 178.876 192.315 181.603 194.856C184.33 197.398 188.751 197.398 191.478 194.856Z" fill="#FAFAFA"/>
<path d="M64.6297 300.588C64.6388 300.331 65.567 274.807 70.0214 270.771C74.3548 266.845 79.328 270.625 79.5373 270.787L79.9841 270.288C79.9277 270.244 74.3157 265.974 69.5355 270.304C64.8799 274.523 63.969 299.506 63.9326 300.568L64.6297 300.588Z" fill="#E0E0E0"/>
<path d="M64.2474 305.605C64.2793 305.3 67.2923 274.963 55.404 262.249L54.8781 262.676C66.5697 275.179 63.5849 305.239 63.554 305.542L64.2474 305.605Z" fill="#E0E0E0"/>
<path d="M64.687 302.396L65.3831 302.353C65.3585 302.008 63.0562 267.865 71.7768 260.39L71.3045 259.912C62.3392 267.596 64.5869 300.978 64.687 302.396Z" fill="#E0E0E0"/>
<path d="M63.5513 302.376L64.2483 302.371C64.2401 301.431 63.9608 279.308 57.2168 275.708C55.718 274.906 54.2502 274.773 52.8533 275.311C48.7756 276.883 46.7554 283.645 46.6708 283.932L47.3433 284.103C47.3633 284.036 49.358 277.36 53.1199 275.911C54.3057 275.455 55.5669 275.575 56.8691 276.271C63.2701 279.688 63.5495 302.15 63.5513 302.376Z" fill="#E0E0E0"/>
<path d="M66.1775 302.393L66.8736 302.356C66.8627 302.181 65.8563 284.875 70.8685 278.776C72.0834 277.299 73.4011 276.594 74.7943 276.685C78.0785 276.898 80.8321 281.377 80.8594 281.422L81.4673 281.103C81.3481 280.906 78.5025 276.276 74.8443 276.037C73.2072 275.928 71.6821 276.719 70.3153 278.381C65.1455 284.67 66.1329 301.673 66.1775 302.393Z" fill="#E0E0E0"/>
<path d="M65.0782 304.747C65.2147 303.068 68.3551 263.549 62.8296 256.585L62.269 256.971C67.6417 263.742 64.4157 304.289 64.383 304.697L65.0782 304.747Z" fill="#E0E0E0"/>
<path d="M51.3518 279.316C51.3518 279.316 54.666 280.455 53.6814 283.143C52.6968 285.831 42.2145 290.256 42.2145 290.256C42.2145 290.256 37.8246 286.507 41.8559 280.409C45.8872 274.311 51.2626 277.392 51.3518 279.316Z" fill="#EDF8F0"/>
<path d="M65.7617 274.198C65.7617 274.198 62.2318 274.061 62.0316 276.895C61.8314 279.73 69.6783 287.572 69.6783 287.572C69.6783 287.572 75.2785 285.685 74.0754 278.612C72.8724 271.539 66.6389 272.455 65.7617 274.198Z" fill="#EDF8F0"/>
<path d="M68.7501 260.629C68.7501 260.629 66.3969 260.394 66.5862 259.058C66.7754 257.723 75.7344 254.285 81.0197 259.843C81.0197 259.843 77.6354 265.26 72.7432 265.332C67.8511 265.403 68.7501 260.629 68.7501 260.629Z" fill="#EDF8F0"/>
<path d="M64.3648 257.386C64.3648 257.386 66.4952 258.346 67.093 257.119C67.69 255.892 62.0389 248.559 54.3976 250.671C54.3976 250.671 54.1956 256.937 58.307 259.408C62.4184 261.88 64.3648 257.386 64.3648 257.386Z" fill="#EDF8F0"/>
<path d="M75.5059 278.236C75.5059 278.236 73.8816 277.014 75.6343 276.418C77.3869 275.821 85.9873 275.99 86.0765 283.929C86.0765 283.929 76.0601 285.48 74.8207 282.456C73.5813 279.432 75.5059 278.236 75.5059 278.236Z" fill="#EBEBEB"/>
<path d="M55.0809 260.43C55.0809 260.43 56.7053 259.208 54.9526 258.612C53.2 258.016 44.5996 258.185 44.5104 266.124C44.5104 266.124 54.5267 267.675 55.7662 264.651C57.0065 261.627 55.0809 260.43 55.0809 260.43Z" fill="#EDF8F0"/>
<path d="M60.3763 266.825C60.3763 266.825 60.5192 265.339 59.2324 265.922C57.9457 266.504 53.4621 271.012 58.1095 275.288C58.1095 275.288 64.3657 270.971 63.2373 268.722C62.1099 266.474 60.3763 266.825 60.3763 266.825Z" fill="#EDF8F0"/>
<path d="M76.9583 268.942C76.9583 268.942 75.9874 267.757 77.4088 267.61C78.8311 267.464 85.2029 269.048 83.7187 274.976C83.7187 274.976 75.9555 274.432 75.6234 271.97C75.2912 269.506 76.9583 268.942 76.9583 268.942Z" fill="#EBEBEB"/>
<path d="M50.7321 324.38H77.3678L80.2406 297.205H47.8583L50.7321 324.38Z" fill="#F0F0F0"/>
<path d="M46.4367 300.203H81.6628V294.207H46.4367V300.203Z" fill="#E6E6E6"/>
<path d="M355.384 317.74V233.032H350.858V317.74L336.171 322.415V324.38H352.561H353.68H370.071V322.415L355.384 317.74Z" fill="#EBEBEB"/>
<path d="M264.326 317.74V233.032H259.801V317.74L245.114 322.415V324.38H261.504H262.623H279.014V322.415L264.326 317.74Z" fill="#EBEBEB"/>
<path d="M377.034 150.289H238.149V240.945H377.034V150.289Z" fill="#EBEBEB"/>
<path d="M374.305 238.402V152.833L240.879 152.833L240.879 238.402L374.305 238.402Z" fill="#FAFAFA"/>
<path d="M211.5 362.572C308.945 362.572 387.939 358.273 387.939 352.97C387.939 347.667 308.945 343.368 211.5 343.368C114.055 343.368 35.061 347.667 35.061 352.97C35.061 358.273 114.055 362.572 211.5 362.572Z" fill="#F5F5F5"/>
<path d="M257.747 89.464H175.816C171.567 89.464 168.123 92.6737 168.123 96.633V165.703C168.123 169.662 171.567 172.871 175.815 172.871H189.683L185.869 188.991L202.156 172.871H257.747C261.996 172.871 265.439 169.661 265.439 165.703V96.633C265.44 92.6737 261.996 89.464 257.747 89.464Z" fill="#1B2459"/>
<path opacity="0.7" d="M257.747 89.464H175.816C171.567 89.464 168.123 92.6737 168.123 96.633V165.703C168.123 169.662 171.567 172.871 175.815 172.871H189.683L185.869 188.991L202.156 172.871H257.747C261.996 172.871 265.439 169.661 265.439 165.703V96.633C265.44 92.6737 261.996 89.464 257.747 89.464Z" fill="white"/>
<path d="M241.232 96.5651C237.466 101.879 239.058 107.993 239.505 113.898C240.021 120.706 237.589 127.32 230.512 130.312C222.735 133.601 215.09 129.552 207.191 131.037C199.191 132.542 194.665 138.899 194.859 146.215C195.044 153.178 197.531 160.466 192.456 166.558" stroke="url(#paint0_linear_4_36)" stroke-width="2.0709" stroke-miterlimit="10"/>
<path d="M254.59 109.144C248.849 112.597 242.305 111.05 235.973 110.572C228.673 110.019 221.551 112.217 218.266 118.78C214.656 125.992 218.919 133.158 217.243 140.503C215.545 147.941 208.676 152.093 200.828 151.835C193.357 151.59 185.563 149.196 178.973 153.861" stroke="url(#paint1_linear_4_36)" stroke-width="2.0709" stroke-miterlimit="10"/>
<path d="M231.383 110.609L239.454 118.209" stroke="url(#paint2_linear_4_36)" stroke-width="2.0709" stroke-miterlimit="10"/>
<path d="M225.296 112.002L237.998 123.965" stroke="url(#paint3_linear_4_36)" stroke-width="2.0709" stroke-miterlimit="10"/>
<path d="M220.975 115.06L234.508 127.803" stroke="url(#paint4_linear_4_36)" stroke-width="2.0709" stroke-miterlimit="10"/>
<path d="M218.079 119.459L229.95 130.638" stroke="url(#paint5_linear_4_36)" stroke-width="2.0709" stroke-miterlimit="10"/>
<path d="M216.77 125.352L223.446 131.638" stroke="url(#paint6_linear_4_36)" stroke-width="2.0709" stroke-miterlimit="10"/>
<path d="M209.745 130.562L217.815 138.164" stroke="url(#paint7_linear_4_36)" stroke-width="2.0709" stroke-miterlimit="10"/>
<path d="M203.657 131.956L216.36 143.918" stroke="url(#paint8_linear_4_36)" stroke-width="2.0709" stroke-miterlimit="10"/>
<path d="M199.337 135.013L212.87 147.757" stroke="url(#paint9_linear_4_36)" stroke-width="2.0709" stroke-miterlimit="10"/>
<path d="M196.441 139.413L208.312 150.591" stroke="url(#paint10_linear_4_36)" stroke-width="2.0709" stroke-miterlimit="10"/>
<path d="M195.132 145.306L201.807 151.592" stroke="url(#paint11_linear_4_36)" stroke-width="2.0709" stroke-miterlimit="10"/>
<path d="M251.334 148.967H227.574V163.438H251.334V148.967Z" fill="white"/>
<path d="M230.67 152.384H248.238" stroke="#263238" stroke-miterlimit="10" stroke-linecap="round" stroke-linejoin="round"/>
<path d="M230.67 154.93H248.238" stroke="#263238" stroke-miterlimit="10" stroke-linecap="round" stroke-linejoin="round"/>
<path d="M230.67 157.475H248.238" stroke="#263238" stroke-miterlimit="10" stroke-linecap="round" stroke-linejoin="round"/>
<path d="M230.67 160.021H244.596" stroke="#263238" stroke-miterlimit="10" stroke-linecap="round" stroke-linejoin="round"/>
<path d="M205.103 98.6716H181.343V113.142H205.103V98.6716Z" fill="white"/>
<path d="M184.438 102.088H202.007" stroke="#263238" stroke-miterlimit="10" stroke-linecap="round" stroke-linejoin="round"/>
<path d="M184.438 104.634H202.007" stroke="#263238" stroke-miterlimit="10" stroke-linecap="round" stroke-linejoin="round"/>
<path d="M184.438 107.18H202.007" stroke="#263238" stroke-miterlimit="10" stroke-linecap="round" stroke-linejoin="round"/>
<path d="M184.438 109.725H198.364" stroke="#263238" stroke-miterlimit="10" stroke-linecap="round" stroke-linejoin="round"/>
<path d="M204.446 105.513L204.104 106.299L223.247 113.535L223.59 112.749L204.446 105.513Z" fill="white"/>
<path d="M203.223 145.002C203.223 145.437 202.844 145.79 202.377 145.79C201.91 145.79 201.532 145.437 201.532 145.002C201.532 144.567 201.91 144.214 202.377 144.214C202.843 144.214 203.223 144.567 203.223 145.002Z" fill="white"/>
<path d="M202.571 144.621L202.173 145.384L228.179 157.168L228.577 156.405L202.571 144.621Z" fill="white"/>
<path d="M224.291 113.142C224.291 113.577 223.912 113.93 223.446 113.93C222.979 113.93 222.6 113.577 222.6 113.142C222.6 112.707 222.979 112.354 223.446 112.354C223.912 112.354 224.291 112.707 224.291 113.142Z" fill="white"/>
<path d="M119.153 165.997C125.614 167.261 132.498 191.445 132.498 191.445L126.724 197.249L116.41 179.603L119.153 165.997Z" fill="#1B2459"/>
<path opacity="0.7" d="M116.409 179.604L116.627 179.977L125.254 194.724L126.728 197.251L132.497 191.442C132.497 191.442 125.618 167.265 119.157 165.993L116.409 179.604Z" fill="white"/>
<path opacity="0.1" d="M116.627 179.977L125.254 194.724C125.254 194.478 125.245 194.206 125.227 193.918C124.453 182.708 117.737 176.789 117.737 176.789C117.191 177.789 116.827 178.866 116.627 179.977Z" fill="black"/>
<path d="M71.0724 227.701C71.0724 227.701 90.8786 222.798 114.881 229.988C114.881 229.988 118.745 183.124 118.284 176.687C117.824 170.25 81.2262 172.134 81.2262 172.134C81.2262 172.134 80.2816 190.89 77.9274 202.206C75.5724 213.524 69.8657 225.525 71.0724 227.701Z" fill="#1B2459"/>
<path opacity="0.5" d="M71.0724 227.701C71.0724 227.701 90.8786 222.798 114.881 229.988C114.881 229.988 118.745 183.124 118.284 176.687C117.824 170.25 81.2262 172.134 81.2262 172.134C81.2262 172.134 80.2816 190.89 77.9274 202.206C75.5724 213.524 69.8657 225.525 71.0724 227.701Z" fill="white"/>
<path d="M126.461 349.513L120 351.218L118.463 341.847L117.634 336.835L124.095 335.131L125.197 341.847L126.461 349.513Z" fill="#EEC1BB"/>
<path d="M89.3143 350.005L82.6531 350.827L82.5894 341.847L82.5439 336.268L89.2142 335.454L89.2607 341.847L89.3143 350.005Z" fill="#EEC1BB"/>
<path opacity="0.2" d="M89.2142 335.454L89.2607 341.847H82.5894L82.5439 336.268L89.2142 335.454Z" fill="black"/>
<path opacity="0.2" d="M125.197 341.847H118.463L117.634 336.835L124.095 335.131L125.197 341.847Z" fill="black"/>
<path d="M126.382 348.574L119.045 348.39C118.77 348.383 118.525 348.554 118.456 348.801L116.915 354.307C116.754 354.878 117.204 355.434 117.838 355.44C120.486 355.465 124.317 355.417 127.644 355.5C131.534 355.598 134.007 355.42 138.568 355.534C141.326 355.604 142.192 353.036 141.046 352.773C135.831 351.575 132.422 351.811 127.98 349.1C127.499 348.805 126.962 348.588 126.382 348.574Z" fill="#263238"/>
<path d="M126.909 349.329C126.902 349.267 126.938 349.207 126.999 349.18C127.31 349.042 130.058 347.832 130.859 348.281C131.013 348.367 131.099 348.505 131.107 348.681C131.12 348.976 131.01 349.215 130.781 349.391C130.021 349.978 128.105 349.684 127.03 349.457C127.023 349.455 127.017 349.453 127.009 349.451C126.955 349.432 126.915 349.385 126.909 349.329ZM127.57 349.261C129.044 349.527 130.152 349.495 130.579 349.166C130.729 349.05 130.798 348.896 130.789 348.696C130.786 348.618 130.758 348.57 130.695 348.536C130.677 348.526 130.658 348.518 130.637 348.511C130.138 348.335 128.654 348.816 127.57 349.261Z" fill="#1B2459"/>
<path d="M126.97 349.431C126.926 349.4 126.902 349.348 126.909 349.295C126.919 349.224 127.165 347.55 128.045 346.921C128.313 346.729 128.614 346.651 128.938 346.69C129.373 346.744 129.492 346.952 129.514 347.118C129.61 347.825 127.952 349.133 127.128 349.45C127.089 349.465 127.047 349.465 127.01 349.451C126.997 349.446 126.983 349.44 126.97 349.431ZM128.895 346.983C128.655 346.954 128.441 347.01 128.239 347.154C127.661 347.567 127.383 348.565 127.278 349.054C128.123 348.613 129.255 347.582 129.199 347.157C129.195 347.131 129.186 347.064 129.056 347.018C129.015 347.003 128.962 346.991 128.895 346.983Z" fill="#1B2459"/>
<path d="M89.0486 348.574L81.7112 348.39C81.4364 348.383 81.1916 348.554 81.1225 348.801L79.5809 354.307C79.4208 354.878 79.8703 355.434 80.5046 355.44C83.1527 355.465 86.9829 355.417 90.3098 355.5C94.2001 355.598 96.6735 355.42 101.234 355.534C103.993 355.604 104.858 353.036 103.712 352.773C98.4971 351.575 95.0882 351.811 90.6465 349.1C90.1651 348.805 89.6282 348.588 89.0486 348.574Z" fill="#263238"/>
<path d="M89.5754 349.329C89.5682 349.267 89.6046 349.207 89.6655 349.18C89.9768 349.042 92.724 347.832 93.5258 348.281C93.6805 348.367 93.7651 348.505 93.7733 348.681C93.786 348.976 93.6759 349.215 93.4475 349.391C92.6876 349.978 90.7712 349.684 89.6965 349.457C89.6892 349.455 89.6828 349.453 89.6755 349.451C89.6209 349.432 89.5818 349.385 89.5754 349.329ZM90.2361 349.261C91.7103 349.527 92.8187 349.495 93.2455 349.166C93.3956 349.05 93.4639 348.896 93.4557 348.696C93.452 348.618 93.4238 348.57 93.361 348.536C93.3438 348.526 93.3246 348.518 93.3037 348.511C92.8041 348.335 91.3199 348.816 90.2361 349.261Z" fill="#1B2459"/>
<path d="M89.6364 349.431C89.5918 349.4 89.5682 349.348 89.5755 349.295C89.5855 349.224 89.8312 347.55 90.7111 346.921C90.9796 346.729 91.2799 346.651 91.6039 346.69C92.0397 346.744 92.158 346.952 92.1808 347.118C92.2763 347.825 90.6183 349.133 89.7939 349.45C89.7556 349.465 89.7138 349.465 89.6765 349.451C89.6628 349.446 89.6492 349.44 89.6364 349.431ZM91.5611 346.983C91.3217 346.954 91.107 347.01 90.9059 347.154C90.328 347.567 90.0505 348.565 89.9449 349.054C90.7903 348.613 91.9233 347.582 91.8659 347.157C91.8623 347.131 91.8532 347.064 91.7231 347.018C91.6812 347.003 91.6284 346.991 91.5611 346.983Z" fill="#1B2459"/>
<path d="M75.5724 213.524C72.0434 227.784 78.0995 339.931 78.0995 339.931H89.8039L94.808 246.469L113.24 339.931L125.749 339.082C117.572 266.682 110.343 223.457 110.343 223.457L110.36 217.995L75.5724 213.524Z" fill="#1B2459"/>
<path d="M81.8778 160.721C82.301 167.706 81.9798 174.672 81.3209 181.159C80.835 185.905 80.1579 190.391 79.439 194.44C77.7565 203.93 75.8455 211.042 75.5734 213.524C80.6712 214.181 99.884 216.652 110.361 217.995C123.047 184.942 118.269 167.4 118.269 167.4L110.3 163.165C110.3 163.165 109.131 162.877 108.534 162.749C104.671 161.915 98.2169 161.221 93.7433 160.847C92.8024 160.769 91.846 160.713 90.9123 160.672C86.1603 160.47 81.8778 160.721 81.8778 160.721Z" fill="#263238"/>
<path d="M94.9691 160.693C94.9691 160.693 102.95 166.562 105.352 166.536C107.036 166.519 109.474 163.95 109.474 163.95C108.246 163.365 107.391 162.703 106.845 161.991C105.179 159.862 106.144 157.276 107.5 154.91L100.502 145.845C100.402 147.66 100.138 150.06 99.601 152.417C99.601 152.425 99.601 152.425 99.601 152.425C98.8093 155.953 97.3897 159.396 94.9691 160.693Z" fill="#EEC1BB"/>
<path opacity="0.2" d="M99.601 152.417C99.601 152.425 99.601 152.425 99.601 152.425C100.329 156.386 102.185 160.956 106.845 161.991C105.179 159.862 106.144 157.276 107.5 154.91L100.502 145.845C100.402 147.66 100.138 150.06 99.601 152.417Z" fill="black"/>
<path d="M105.354 166.538C105.354 166.538 103.411 168.186 101.185 169.78C98.5144 168.122 92.3191 163.793 93.0735 160.52C93.5904 159.6 96.3741 159.293 96.3741 159.293C96.3741 159.293 98.8629 163.187 105.354 166.538Z" fill="#263238"/>
<path d="M105.354 166.538C105.354 166.538 107.37 168.394 108.55 170.599C110.807 169.57 110.541 163.291 109.86 162.523C108.323 161.41 106.37 161.242 106.37 161.242C106.37 161.242 107.498 164.212 105.354 166.538Z" fill="#263238"/>
<g opacity="0.2">
<path d="M105.354 166.538C105.354 166.538 103.411 168.186 101.185 169.78C98.5144 168.122 92.3191 163.793 93.0735 160.52C93.5904 159.6 96.3741 159.293 96.3741 159.293C96.3741 159.293 98.8629 163.187 105.354 166.538Z" fill="white"/>
<path d="M105.354 166.538C105.354 166.538 107.37 168.394 108.55 170.599C110.807 169.57 110.541 163.291 109.86 162.523C108.323 161.41 106.37 161.242 106.37 161.242C106.37 161.242 107.498 164.212 105.354 166.538Z" fill="white"/>
</g>
<path d="M93.0726 160.52C93.0726 160.52 92.7723 171.561 89.6692 184.476C89.6601 184.501 89.6601 184.51 89.6601 184.51C87.0939 195.195 82.5985 207.16 74.7452 215.19C74.7452 215.19 71.087 223.017 72.2791 229.878C72.2791 229.878 69.8858 228.962 69.4035 227.698C68.9212 226.443 75.8827 210.891 77.5662 199.095C79.2406 187.308 80.2052 160.52 80.2052 160.52C80.2052 160.52 83.3993 159.969 88.8866 160.206C90.1606 160.265 91.5629 160.359 93.0726 160.52Z" fill="#1B2459"/>
<path opacity="0.7" d="M69.4073 227.694C69.8896 228.957 72.2829 229.873 72.2829 229.873C71.0908 223.013 74.749 215.186 74.749 215.186C75.2495 214.677 75.7318 214.151 76.2141 213.609C80.6185 208.555 83.8763 202.237 86.2787 195.733C87.6801 191.976 88.7812 188.169 89.6639 184.505C89.6639 184.505 89.6639 184.497 89.673 184.471C89.7731 184.056 89.8641 183.649 89.9642 183.242C92.5213 172.065 92.9945 162.542 93.0673 160.795C93.0764 160.609 93.0764 160.515 93.0764 160.515C91.5658 160.354 90.1644 160.261 88.8904 160.202C83.4031 159.964 80.209 160.515 80.209 160.515C80.209 160.515 79.9815 166.74 79.572 174.499C79.5629 174.618 79.5629 174.728 79.5538 174.847C79.4264 177.077 79.2899 179.417 79.1443 181.775L79.1352 181.783C78.8531 186.184 78.5164 190.619 78.1251 194.393C77.9522 196.114 77.7611 197.709 77.57 199.091C75.8865 210.887 68.925 226.439 69.4073 227.694Z" fill="white"/>
<path opacity="0.4" d="M93.0726 160.52C93.0726 160.52 92.7723 171.561 89.6692 184.476C89.6601 184.501 89.6601 184.51 89.6601 184.51L85.0646 167.414L89.924 166.981L85.0646 164.319L88.8866 160.206C90.1606 160.265 91.5629 160.359 93.0726 160.52Z" fill="white"/>
<path d="M115.114 231.641L113.867 232.48C113.867 232.48 115.669 214.536 114.941 190.623C114.904 189.47 114.859 188.359 114.813 187.299C113.885 167.065 110.518 163.385 110.3 163.165L113.448 164.165L119.154 165.997C120.837 183.262 115.114 231.641 115.114 231.641Z" fill="#1B2459"/>
<path opacity="0.7" d="M115.114 231.641L113.867 232.48C113.867 232.48 115.669 214.536 114.941 190.623C114.904 189.47 114.859 188.359 114.813 187.299C113.885 167.065 110.518 163.385 110.3 163.165L113.448 164.165L119.154 165.997C120.837 183.262 115.114 231.641 115.114 231.641Z" fill="white"/>
<path opacity="0.4" d="M113.685 170.254L117.289 172.357C117.289 172.357 116.351 182.253 114.813 187.299C113.885 167.065 110.518 163.385 110.3 163.165L113.448 164.165C114.704 165.293 116.633 167.226 117.735 169.355L113.685 170.254Z" fill="white"/>
<path opacity="0.2" d="M81.2244 175.138C81.2244 175.138 80.9514 178.886 79.1405 181.778C79.2861 179.421 79.4226 177.08 79.55 174.85C80.0696 174.825 80.6338 174.918 81.2244 175.138Z" fill="black"/>
<path opacity="0.2" d="M98.7328 266.358L94.8107 246.473L95.566 235.949C95.566 235.949 100.945 254.198 98.7328 266.358Z" fill="black"/>
<path d="M129.427 171.967C127.207 171.83 127.087 174.377 128.112 175.31C129.137 176.243 132.546 175.576 132.497 174.155C132.451 172.734 131.409 172.089 129.427 171.967Z" fill="#1B2459"/>
<path opacity="0.5" d="M129.427 171.967C127.207 171.83 127.087 174.377 128.112 175.31C129.137 176.243 132.546 175.576 132.497 174.155C132.451 172.734 131.409 172.089 129.427 171.967Z" fill="white"/>
<path d="M127.159 173.954C127.159 173.954 115.824 196.119 109.932 200.739H129.494L143.964 176.777L127.159 173.954Z" fill="white"/>
<path d="M148.153 174.063L129.9 172.571C128.71 172.473 127.579 173.073 127.059 174.076L111.787 203.58C111.555 204.028 111.882 204.551 112.414 204.585L130.576 205.727C131.739 205.8 132.833 205.213 133.348 204.237L148.762 175.072C148.997 174.629 148.68 174.106 148.153 174.063Z" fill="#263238"/>
<path opacity="0.2" d="M148.153 174.063L129.9 172.571C128.71 172.473 127.579 173.073 127.059 174.076L111.787 203.58C111.555 204.028 111.882 204.551 112.414 204.585L130.576 205.727C131.739 205.8 132.833 205.213 133.348 204.237L148.762 175.072C148.997 174.629 148.68 174.106 148.153 174.063Z" fill="white"/>
<path d="M143.902 191.242L142.13 194.835C139.054 198.317 136.059 195.657 136.059 195.657L133.728 195.183C132.937 195.023 132.714 194.172 133.199 193.171L134.418 190.658C134.974 189.513 136.25 188.59 137.247 188.611L139.485 188.661C140.137 188.675 140.701 188.85 141.129 189.168L143.902 191.242Z" fill="#EEC1BB"/>
<path d="M129.341 191.08C129.384 191.282 129.434 191.484 129.493 191.679L148.275 193.013C148.275 193.013 147.371 184.39 148.608 178.334C149.49 174.042 147.466 173.685 147.466 173.685L129.399 171.953C129.406 171.953 129.421 171.96 129.428 171.967C131.38 172.66 127.671 183.763 129.341 191.08Z" fill="white"/>
<path opacity="0.1" d="M78.125 194.393C78.5345 194.546 78.9531 194.673 79.3717 194.792C81.674 195.436 84.1219 195.69 86.2786 195.733C88.1987 195.775 89.8913 195.648 91.0561 195.487C108.018 193.079 108.528 189.839 108.528 189.839C108.528 189.839 97.8993 189.178 92.8579 186.345C91.7841 185.743 90.8195 184.624 89.9641 183.242C86.77 178.12 85.0683 169.326 85.0683 169.326C85.0683 169.326 83.7579 170.403 81.9652 172.116C81.2281 172.811 80.4091 173.617 79.5719 174.499C79.5628 174.618 79.5628 174.728 79.5537 174.847C79.4263 177.077 79.2898 179.417 79.1442 181.775L79.1351 181.783C78.853 186.184 78.5163 190.619 78.125 194.393Z" fill="black"/>
<path d="M115.217 179.915L123.468 191.441" stroke="#263238" stroke-width="1.1217" stroke-miterlimit="10" stroke-linecap="round" stroke-linejoin="round"/>
<path d="M109.541 184.653L109.353 188.663C110.769 192.668 115.981 190.08 115.981 190.08L119.026 189.778C120.058 189.676 120.86 188.783 120.921 187.667L121.076 184.864C121.146 183.587 120.229 182.484 119.042 182.419L116.375 182.274C115.599 182.232 114.823 182.37 114.118 182.674L109.541 184.653Z" fill="#EEC1BB"/>
<path d="M80.2062 160.52C70.0551 163.165 78.4544 192.237 82.1754 193.207C89.2225 195.043 110.3 191.446 110.3 191.446L110.344 183.779C110.344 183.779 90.0524 185.635 88.3443 184.923C86.1303 183.999 85.0556 173.025 84.576 167.841C84.0946 162.658 80.2062 160.52 80.2062 160.52Z" fill="#1B2459"/>
<path opacity="0.7" d="M80.2062 160.52C70.0551 163.165 78.4544 192.237 82.1754 193.207C89.2225 195.043 110.3 191.446 110.3 191.446L110.344 183.779C110.344 183.779 90.0524 185.635 88.3443 184.923C86.1303 183.999 85.0556 173.025 84.576 167.841C84.0946 162.658 80.2062 160.52 80.2062 160.52Z" fill="white"/>
<path d="M87.0184 218.501L106.556 220.898L106.854 218.222L87.3041 215.925L87.0184 218.501Z" fill="#263238"/>
<path d="M86.4606 215.826L75.3686 214.523L75.0455 217.031L86.1748 218.397L86.4606 215.826Z" fill="#263238"/>
<path d="M107.697 218.321L107.4 221.002L110.358 221.365V218.633L107.697 218.321Z" fill="#263238"/>
<g opacity="0.2">
<path d="M87.0184 218.501L106.556 220.898L106.854 218.222L87.3041 215.925L87.0184 218.501Z" fill="white"/>
<path d="M86.4606 215.826L75.3686 214.523L75.0455 217.031L86.1748 218.397L86.4606 215.826Z" fill="white"/>
<path d="M107.697 218.321L107.4 221.002L110.358 221.365V218.633L107.697 218.321Z" fill="white"/>
</g>
<path d="M96.1794 216.968C96.2167 216.972 95.88 219.588 95.88 219.588L100.491 220.154L100.713 217.5L96.1794 216.968Z" stroke="white" stroke-width="0.75" stroke-miterlimit="10" stroke-linecap="round" stroke-linejoin="round"/>
<path d="M119.706 141.639C119.971 144.057 118.52 148.642 115.45 146.473C112.38 144.302 119.249 137.483 119.706 141.639Z" fill="#263238"/>
<path d="M101.467 141.34C99.8039 147.104 98.5135 150.403 100.546 154.236C103.601 160.002 112.057 159.692 115.545 154.49C118.685 149.809 120.879 141.167 115.724 137.111C110.647 133.116 103.131 135.575 101.467 141.34Z" fill="#EEC1BB"/>
<path d="M98.9421 134.698L106.071 134.846L105.98 138.658C105.851 138.579 105.704 138.5 105.583 138.42C105.583 138.42 104.725 143.941 101.189 145.624C96.8191 142.056 95.8617 136.618 98.9421 134.698Z" fill="#263238"/>
<path d="M97.4306 145.316C97.3905 146.922 98.1568 148.39 99.1578 149.323C100.665 150.726 102.479 149.704 102.95 147.872C103.373 146.221 103.098 143.503 101.158 142.789C99.2469 142.084 97.4761 143.479 97.4306 145.316Z" fill="#EEC1BB"/>
<path d="M110.142 145.719C109.976 146.179 110.104 146.632 110.428 146.729C110.753 146.828 111.15 146.534 111.316 146.074C111.482 145.613 111.354 145.162 111.03 145.063C110.705 144.966 110.307 145.259 110.142 145.719Z" fill="#263238"/>
<path d="M115.75 147.417C115.584 147.878 115.712 148.33 116.036 148.428C116.36 148.526 116.758 148.233 116.924 147.773C117.089 147.312 116.961 146.86 116.637 146.762C116.313 146.664 115.915 146.958 115.75 147.417Z" fill="#263238"/>
<path d="M113.884 147.107C113.884 147.107 114.119 150.013 114.925 151.633C113.8 152.09 112.434 151.289 112.434 151.289L113.884 147.107Z" fill="#D4827D"/>
<path d="M109.14 152.244C109.334 152.331 109.545 152.41 109.771 152.479C109.851 152.503 109.939 152.463 109.966 152.388C109.993 152.313 109.948 152.233 109.869 152.209C107.691 151.547 107.183 149.831 107.179 149.813C107.158 149.737 107.073 149.692 106.991 149.713C106.909 149.733 106.86 149.811 106.881 149.887C106.9 149.956 107.338 151.437 109.14 152.244Z" fill="#263238"/>
<path d="M109.018 143.516C109.114 143.559 109.231 143.554 109.327 143.493C110.458 142.769 111.508 143.152 111.519 143.155C111.676 143.215 111.856 143.144 111.921 142.999C111.985 142.854 111.91 142.688 111.754 142.629C111.698 142.607 110.382 142.127 108.979 143.025C108.839 143.115 108.804 143.293 108.899 143.421C108.93 143.463 108.971 143.494 109.018 143.516Z" fill="#263238"/>
<path d="M118.812 146.361C118.865 146.384 118.925 146.394 118.987 146.386C119.155 146.365 119.273 146.221 119.251 146.066C119.032 144.504 117.76 143.942 117.706 143.91C117.553 143.843 117.37 143.904 117.296 144.046C117.222 144.187 117.286 144.355 117.437 144.423C117.491 144.444 118.465 144.89 118.641 146.143C118.655 146.241 118.722 146.321 118.812 146.361Z" fill="#263238"/>
<path d="M103.285 139.705C103.285 139.705 103.431 139.849 103.694 140.013C104.22 140.342 105.212 140.759 106.431 140.293C108.26 139.595 109.157 134.95 114.009 137.652C114.009 137.652 115.766 137.278 116.953 138.837C118.139 140.397 116.85 145.736 119.668 145.165C122.486 144.594 122.062 143.77 122.062 143.77C122.062 143.77 121.256 144.177 120.822 143.786C120.822 143.786 122.352 142.757 121.771 141.145C121.771 141.145 121.046 141.841 120.607 141.667C120.607 141.667 121.646 138.965 120.321 135.142C118.995 131.319 109.127 131.527 109.127 131.527C109.127 131.527 108.03 129.524 103.503 130.584C98.9758 131.646 96.5879 136.49 97.1321 138.704" fill="#263238"/>
<path d="M290.51 145.546C290.221 145.703 290.123 146.052 290.291 146.321L295.896 155.265C296.015 155.455 296.236 155.55 296.458 155.538L297.674 157.479L298.14 157.225L296.924 155.285C297.044 155.111 297.065 154.885 296.945 154.695L291.342 145.75C291.172 145.481 290.798 145.39 290.51 145.546Z" fill="#1B2459"/>
<path opacity="0.4" d="M290.51 145.546C290.221 145.703 290.123 146.052 290.291 146.321L295.896 155.265C296.015 155.455 296.236 155.55 296.458 155.538L297.674 157.479L298.14 157.225L296.924 155.285C297.044 155.111 297.065 154.885 296.945 154.695L291.342 145.75C291.172 145.481 290.798 145.39 290.51 145.546Z" fill="white"/>
<path d="M291.551 144.804C292.025 145.561 291.907 146.449 291.287 146.786C290.666 147.124 289.779 146.784 289.305 146.026C288.831 145.269 288.948 144.381 289.569 144.044C290.189 143.706 291.076 144.046 291.551 144.804Z" fill="#1B2459"/>
<path d="M291.949 146.838L291.009 147.35C290.787 147.471 290.502 147.4 290.372 147.194C290.243 146.988 290.319 146.722 290.54 146.601L291.481 146.089C291.702 145.969 291.988 146.039 292.117 146.245C292.246 146.451 292.171 146.718 291.949 146.838Z" fill="#1B2459"/>
<path d="M282.073 153.404L285.378 155.977C289.654 157.358 290.61 151.928 290.61 151.928L292.201 149.49C292.74 148.664 292.465 147.527 291.551 146.805L289.255 144.989C288.208 144.162 286.711 144.172 285.935 145.012L284.193 146.9C283.686 147.449 283.333 148.107 283.164 148.815L282.073 153.404Z" fill="#FFB573"/>
<path d="M312.233 165.034C313.282 167.483 307.525 175.237 307.525 175.237C307.525 175.237 283.884 182.363 281.627 180.777C275.784 176.673 281.713 153.217 281.713 153.217L287.957 156.202C287.275 160.365 287.275 171.88 287.275 171.88C287.275 171.88 298.626 169.034 303.338 166.243C308.049 163.452 312.233 165.034 312.233 165.034Z" fill="#1B2459"/>
<path opacity="0.7" d="M307.53 175.239C307.53 175.239 307.411 175.273 307.175 175.349C306.064 175.672 302.47 176.732 298.293 177.851C291.395 179.7 282.932 181.692 281.631 180.777C275.78 176.672 281.713 153.217 281.713 153.217L287.955 156.202C287.273 160.365 287.273 171.881 287.273 171.881C287.273 171.881 298.63 169.032 303.334 166.242C308.048 163.452 312.234 165.038 312.234 165.038C313.281 167.48 307.53 175.239 307.53 175.239Z" fill="white"/>
<path d="M338.904 234.882C338.904 234.882 320.808 225.92 295.681 227.845C295.681 227.845 303.333 181.386 305.348 175.215C307.365 169.044 342.548 178.619 342.548 178.619C342.548 178.619 338.9 197.085 338.437 208.605C337.974 220.124 340.609 233.019 338.904 234.882Z" fill="#1B2459"/>
<path opacity="0.5" d="M338.904 234.882C338.904 234.882 320.808 225.92 295.681 227.845C295.681 227.845 303.333 181.386 305.348 175.215C307.365 169.044 342.548 178.619 342.548 178.619C342.548 178.619 338.9 197.085 338.437 208.605C337.974 220.124 340.609 233.019 338.904 234.882Z" fill="white"/>
<path d="M284.654 348.14L291.114 349.844L292.652 340.474L293.481 335.462L287.019 333.758L285.919 340.474L284.654 348.14Z" fill="#FFB573"/>
<path d="M321.8 348.631L328.461 349.454L328.525 340.474L328.571 334.894L321.9 334.08L321.854 340.474L321.8 348.631Z" fill="#FFB573"/>
<path opacity="0.2" d="M321.9 334.08L321.854 340.474H328.525L328.571 334.894L321.9 334.08Z" fill="black"/>
<path opacity="0.2" d="M285.919 340.474H292.652L293.481 335.462L287.019 333.758L285.919 340.474Z" fill="black"/>
<path d="M284.732 347.2L292.07 347.016C292.344 347.009 292.589 347.18 292.658 347.427L294.2 352.933C294.36 353.504 293.911 354.06 293.276 354.066C290.628 354.091 286.798 354.043 283.471 354.126C279.581 354.224 277.108 354.046 272.546 354.16C269.788 354.23 268.923 351.662 270.069 351.399C275.284 350.201 278.693 350.438 283.134 347.726C283.616 347.431 284.153 347.214 284.732 347.2Z" fill="#263238"/>
<path d="M284.104 348.078C284.098 348.08 284.091 348.082 284.083 348.084C283.009 348.311 281.093 348.605 280.332 348.018C280.103 347.841 279.994 347.603 280.007 347.308C280.015 347.132 280.099 346.994 280.254 346.908C281.057 346.459 283.804 347.669 284.114 347.807C284.175 347.834 284.212 347.894 284.204 347.956C284.199 348.012 284.16 348.058 284.104 348.078ZM280.476 347.136C280.455 347.144 280.436 347.152 280.419 347.161C280.356 347.196 280.328 347.243 280.325 347.321C280.317 347.521 280.385 347.675 280.535 347.791C280.962 348.12 282.07 348.152 283.545 347.886C282.461 347.443 280.977 346.961 280.476 347.136Z" fill="#1B2459"/>
<path d="M284.104 348.078C284.067 348.091 284.025 348.091 283.987 348.076C283.163 347.759 281.504 346.451 281.6 345.744C281.623 345.577 281.741 345.37 282.177 345.317C282.501 345.278 282.8 345.356 283.07 345.547C283.95 346.177 284.195 347.85 284.205 347.922C284.213 347.973 284.19 348.025 284.144 348.057C284.133 348.066 284.119 348.073 284.104 348.078ZM282.06 345.643C281.929 345.689 281.92 345.756 281.917 345.782C281.859 346.207 282.992 347.238 283.838 347.679C283.732 347.191 283.455 346.193 282.877 345.78C282.676 345.635 282.461 345.579 282.221 345.608C282.152 345.617 282.1 345.629 282.06 345.643Z" fill="#1B2459"/>
<path d="M322.066 347.2L329.403 347.016C329.678 347.009 329.923 347.18 329.992 347.427L331.534 352.933C331.694 353.504 331.244 354.06 330.61 354.066C327.962 354.091 324.132 354.043 320.805 354.126C316.914 354.224 314.441 354.046 309.88 354.16C307.122 354.23 306.257 351.662 307.402 351.399C312.617 350.201 316.026 350.438 320.468 347.726C320.949 347.431 321.486 347.214 322.066 347.2Z" fill="#263238"/>
<path d="M321.438 348.078C321.432 348.08 321.424 348.082 321.417 348.084C320.342 348.311 318.427 348.605 317.666 348.018C317.437 347.841 317.328 347.603 317.34 347.308C317.348 347.132 317.434 346.994 317.588 346.908C318.39 346.459 321.138 347.669 321.448 347.807C321.509 347.834 321.545 347.894 321.538 347.956C321.533 348.012 321.494 348.058 321.438 348.078ZM317.81 347.136C317.789 347.144 317.77 347.152 317.752 347.161C317.69 347.196 317.662 347.243 317.659 347.321C317.651 347.521 317.719 347.675 317.869 347.791C318.296 348.12 319.403 348.152 320.878 347.886C319.795 347.443 318.31 346.961 317.81 347.136Z" fill="#1B2459"/>
<path d="M321.438 348.078C321.401 348.091 321.359 348.091 321.321 348.076C320.497 347.759 318.838 346.451 318.934 345.744C318.956 345.577 319.075 345.37 319.511 345.317C319.835 345.278 320.134 345.356 320.403 345.547C321.283 346.177 321.529 347.85 321.539 347.922C321.546 347.973 321.524 348.025 321.478 348.057C321.465 348.066 321.452 348.073 321.438 348.078ZM319.393 345.643C319.263 345.689 319.254 345.756 319.25 345.782C319.193 346.207 320.326 347.238 321.171 347.679C321.066 347.191 320.788 346.193 320.21 345.78C320.009 345.635 319.795 345.579 319.555 345.608C319.486 345.617 319.433 345.629 319.393 345.643Z" fill="#1B2459"/>
<path d="M335.542 212.151C339.071 226.411 333.015 338.558 333.015 338.558H321.311L316.307 245.096L297.874 338.558L285.366 337.709C293.543 265.31 300.772 222.084 300.772 222.084L301.832 216.484L335.542 212.151Z" fill="#263238"/>
<path opacity="0.2" d="M335.542 212.151C339.071 226.411 333.015 338.558 333.015 338.558H321.311L316.307 245.096L297.874 338.558L285.366 337.709C293.543 265.31 300.772 222.084 300.772 222.084L301.832 216.484L335.542 212.151Z" fill="white"/>
<path d="M344.693 167.366C342.58 174.079 341.196 180.932 340.258 187.388C339.575 192.113 339.142 196.626 338.856 200.721C338.184 210.318 336.356 217.467 336.016 219.942C330.891 219.504 312.363 217.392 301.832 216.484C300.764 192.126 307.626 166.175 307.626 166.175L316.418 163.734C316.418 163.734 317.627 163.701 318.239 163.703C322.204 163.707 328.659 164.397 333.107 164.978C334.042 165.101 334.987 165.25 335.906 165.407C340.583 166.216 344.693 167.366 344.693 167.366Z" fill="#1B2459"/>
<path d="M331.95 164.57C331.95 164.57 322.748 168.597 320.415 168.064C318.78 167.692 317.031 164.674 317.031 164.674C318.369 164.364 319.364 163.901 320.069 163.322C322.21 161.602 321.9 158.879 321.156 156.287L330.179 148.938C329.834 150.727 329.507 153.12 329.455 155.53C329.453 155.538 329.453 155.538 329.453 155.538C329.365 159.141 329.909 162.794 331.95 164.57Z" fill="#FFB573"/>
<path opacity="0.2" d="M329.455 155.53C329.453 155.538 329.453 155.538 329.453 155.538C327.78 159.242 324.859 163.3 320.069 163.322C322.21 161.602 321.9 158.879 321.156 156.287L330.179 148.938C329.834 150.727 329.506 153.12 329.455 155.53Z" fill="black"/>
<path d="M320.413 168.065C320.413 168.065 321.904 170.081 323.684 172.103C326.689 171.053 333.777 168.148 333.839 164.8C333.56 163.795 330.925 162.907 330.925 162.907C330.925 162.907 327.55 166.175 320.413 168.065Z" fill="#1B2459"/>
<path d="M320.413 168.065C320.413 168.065 317.998 169.446 316.312 171.344C314.365 169.865 316.153 163.806 317.003 163.203C318.771 162.443 320.713 162.693 320.713 162.693C320.713 162.693 318.892 165.346 320.413 168.065Z" fill="#1B2459"/>
<g opacity="0.2">
<path d="M320.413 168.065C320.413 168.065 321.904 170.081 323.684 172.103C326.689 171.053 333.777 168.148 333.839 164.8C333.56 163.795 330.925 162.907 330.925 162.907C330.925 162.907 327.55 166.175 320.413 168.065Z" fill="white"/>
<path d="M320.413 168.065C320.413 168.065 317.998 169.446 316.312 171.344C314.365 169.865 316.153 163.806 317.003 163.203C318.771 162.443 320.713 162.693 320.713 162.693C320.713 162.693 318.892 165.346 320.413 168.065Z" fill="white"/>
</g>
<path opacity="0.1" d="M307.175 175.349C306.064 175.672 302.47 176.732 298.293 177.851C301.696 172.856 307.994 170.321 307.994 170.321C308.294 172.025 307.93 173.747 307.175 175.349Z" fill="black"/>
<path d="M333.84 164.801C333.84 164.801 331.443 175.617 331.32 188.852C331.322 188.878 331.321 188.887 331.321 188.887C331.218 199.835 340.03 230.318 337.198 236.747C337.198 236.747 339.753 236.361 340.53 235.233C341.305 234.112 338.313 217.493 339.546 205.649C340.786 193.815 346.371 167.522 346.371 167.522C346.371 167.522 343.395 166.31 337.993 165.38C336.737 165.169 335.35 164.964 333.84 164.801Z" fill="#1B2459"/>
<path opacity="0.7" d="M346.368 167.514C346.368 167.514 345.604 171.126 344.576 176.274C344.266 177.817 343.93 179.505 343.584 181.268C343.566 181.379 343.538 181.48 343.529 181.591C343.52 181.608 343.52 181.616 343.52 181.616C343.101 183.812 342.665 186.119 342.228 188.451L342.237 188.46C341.436 192.801 340.69 197.194 340.144 200.951C339.898 202.663 339.698 204.258 339.543 205.648C338.315 217.487 341.3 234.107 340.526 235.227C339.753 236.355 337.196 236.745 337.196 236.745C340.026 230.317 332.636 207.378 331.881 200.535C331.663 198.635 331.517 196.744 331.435 194.879C331.335 192.852 331.299 190.842 331.317 188.884C331.317 188.884 331.317 188.875 331.317 188.85C331.317 188.426 331.335 188.01 331.335 187.586C331.563 176.164 333.428 166.785 333.774 165.072C333.81 164.885 333.838 164.8 333.838 164.8C335.348 164.961 336.731 165.165 337.987 165.377C343.393 166.31 346.368 167.514 346.368 167.514Z" fill="white"/>
<path opacity="0.4" d="M333.84 164.801C333.84 164.801 331.443 175.617 331.32 188.852C331.322 188.878 331.321 188.887 331.321 188.887L339.96 173.209L335.333 171.76L340.714 170.194L337.993 165.38C336.737 165.169 335.35 164.964 333.84 164.801Z" fill="white"/>
<path d="M295.053 229.405L296.063 230.486C296.063 230.486 298.678 212.63 305.211 189.494C305.528 188.379 305.842 187.306 306.145 186.284C311.977 166.774 316.152 163.902 316.418 163.734L313.108 164.042L307.105 164.62C301.261 181.079 295.053 229.405 295.053 229.405Z" fill="#1B2459"/>
<path opacity="0.7" d="M295.053 229.405L296.063 230.486C296.063 230.486 298.678 212.63 305.211 189.494C305.528 188.379 305.842 187.306 306.145 186.284C311.977 166.774 316.152 163.902 316.418 163.734L313.108 164.042L307.105 164.62C301.261 181.079 295.053 229.405 295.053 229.405Z" fill="white"/>
<path opacity="0.4" d="M311.394 169.923L307.373 171.21C307.373 171.21 305.875 181.046 306.145 186.285C311.977 166.776 316.152 163.904 316.418 163.735L313.108 164.044C311.61 164.877 309.26 166.351 307.67 168.192L311.394 169.923Z" fill="white"/>
<path opacity="0.2" d="M312.382 264.985L316.304 245.099L315.548 234.575C315.548 234.575 310.169 252.824 312.382 264.985Z" fill="black"/>
<path d="M298.753 339.485H284.106L284.654 335.953H299.3L298.753 339.485Z" fill="#1B2459"/>
<path d="M334.34 335.953H320.235V339.485H334.34V335.953Z" fill="#1B2459"/>
<path opacity="0.1" d="M344.576 176.274C344.266 177.817 343.93 179.505 343.584 181.268C343.566 181.379 343.538 181.48 343.529 181.591C343.52 181.608 343.52 181.616 343.52 181.616C343.101 183.812 342.665 186.119 342.228 188.451L342.237 188.46C342.228 188.46 336.04 192.309 331.435 194.879C328.978 196.244 326.967 197.253 326.585 197.109C310.897 191.275 304.308 178.877 304.108 178.487C304.627 178.86 322.244 191.665 327.759 190.003C328.951 189.638 330.161 188.756 331.335 187.586C335.694 183.278 339.489 175.07 339.489 175.07C339.489 175.07 342.528 175.604 344.576 176.274Z" fill="black"/>
<path d="M298.448 174.836C297.653 174.836 297.009 174.235 297.009 173.495V157.979H299.886V173.495C299.886 174.236 299.242 174.836 298.448 174.836Z" fill="#1B2459"/>
<path opacity="0.8" d="M298.448 174.836C297.653 174.836 297.009 174.235 297.009 173.495V157.979H299.886V173.495C299.886 174.236 299.242 174.836 298.448 174.836Z" fill="white"/>
<path d="M297.288 164.45V173.496C297.288 174.093 297.807 174.577 298.448 174.577C299.088 174.577 299.608 174.093 299.608 173.496V164.45H297.288Z" fill="#1B2459"/>
<path d="M299.859 158.222H297.035C296.904 158.222 296.797 158.122 296.797 158C296.797 157.878 296.904 157.778 297.035 157.778H299.859C299.99 157.778 300.098 157.878 300.098 158C300.098 158.122 299.99 158.222 299.859 158.222Z" fill="#1B2459"/>
<path opacity="0.4" d="M299.859 158.222H297.035C296.904 158.222 296.797 158.122 296.797 158C296.797 157.878 296.904 157.778 297.035 157.778H299.859C299.99 157.778 300.098 157.878 300.098 158C300.098 158.122 299.99 158.222 299.859 158.222Z" fill="white"/>
<path d="M307.525 173.164L305.376 176.643C301.874 179.315 298.967 174.526 298.967 174.526L296.57 172.749C295.758 172.147 295.595 170.992 296.186 170.02L297.668 167.578C298.343 166.464 299.753 165.993 300.792 166.531L303.127 167.742C303.807 168.094 304.382 168.598 304.801 169.208L307.525 173.164Z" fill="#FFB573"/>
<path d="M346.175 167.457C353.219 174.763 329.398 195.102 325.7 194.061C318.695 192.088 302.976 178.518 302.976 178.518L307.352 172.026C307.352 172.026 323.41 183.734 325.262 183.986C327.662 184.314 334.885 175.588 338.273 171.454C341.661 167.318 346.175 167.457 346.175 167.457Z" fill="#1B2459"/>
<path opacity="0.7" d="M346.175 167.457C353.219 174.763 329.398 195.102 325.7 194.061C318.695 192.088 302.976 178.518 302.976 178.518L307.352 172.026C307.352 172.026 323.41 183.734 325.262 183.986C327.662 184.314 334.885 175.588 338.273 171.454C341.661 167.318 346.175 167.457 346.175 167.457Z" fill="white"/>
<path d="M311.443 140.274C310.544 142.768 310.901 147.929 314.697 146.322C318.492 144.715 312.99 135.99 311.443 140.274Z" fill="#263238"/>
<path d="M330.77 144.01C330.918 147.48 331.136 150.172 330.826 152.478C330.559 154.467 329.893 156.164 328.441 157.827C323.735 163.24 314.898 161.029 312.544 154.764C312.289 154.081 312.06 153.344 311.878 152.564C310.504 146.904 311.106 139.134 316.802 136.38C323.187 133.289 330.495 137.561 330.77 144.01Z" fill="#EBB376"/>
<path d="M328.285 145.679L328.821 146.598C328.821 146.598 330.398 149.335 330.827 152.478C330.56 154.467 329.894 156.164 328.442 157.827C323.736 163.24 314.899 161.029 312.545 154.764C312.29 154.081 312.061 153.344 311.878 152.564C311.878 152.564 313.274 154.662 314.461 155.162C314.461 155.162 315.964 152.899 317.722 152.784C317.722 152.784 319.281 150.349 323.223 150.822C323.223 150.822 327.73 150.168 328.285 145.679Z" fill="#263238"/>
<path opacity="0.5" d="M328.285 145.679L328.821 146.598C328.821 146.598 330.398 149.335 330.827 152.478C330.56 154.467 329.894 156.164 328.442 157.827C323.736 163.24 314.899 161.029 312.545 154.764C312.29 154.081 312.061 153.344 311.878 152.564C311.878 152.564 313.274 154.662 314.461 155.162C314.461 155.162 315.964 152.899 317.722 152.784C317.722 152.784 319.281 150.349 323.223 150.822C323.223 150.822 327.73 150.168 328.285 145.679Z" fill="white"/>
<path d="M333.932 136.715C334.394 132.675 329.294 131.996 325.814 133.329C325.357 133.503 324.952 133.524 324.598 133.44L326.034 140.406C326.433 140.283 326.821 140.156 327.172 140.018C327.172 140.018 326.663 146.036 329.966 148.598C336.155 145.469 338.446 138.902 333.932 136.715Z" fill="#263238"/>
<path d="M334.012 149.11C333.644 150.81 332.462 152.188 331.163 152.949C331.012 153.037 330.863 153.112 330.723 153.17L330.71 153.169C328.792 153.192 328.562 147.403 328.549 147.105C328.551 147.092 328.551 147.092 328.551 147.092C329.068 146.33 329.787 145.751 330.725 145.617C332.922 145.292 334.433 147.163 334.012 149.11Z" fill="#EBB376"/>
<path d="M320.493 146.707C320.551 147.23 320.3 147.679 319.932 147.711C319.564 147.742 319.22 147.344 319.163 146.822C319.106 146.299 319.358 145.85 319.725 145.819C320.092 145.786 320.436 146.185 320.493 146.707Z" fill="#263238"/>
<path d="M314.139 147.253C314.196 147.776 313.945 148.225 313.577 148.257C313.21 148.288 312.866 147.89 312.809 147.368C312.751 146.846 313.002 146.396 313.37 146.365C313.738 146.333 314.082 146.73 314.139 147.253Z" fill="#263238"/>
<path d="M316.188 147.34C316.188 147.34 315.196 150.355 313.931 151.886C315.002 152.618 316.649 152.077 316.649 152.077L316.188 147.34Z" fill="#D58745"/>
<path d="M322.457 144.098C322.364 144.161 322.236 144.175 322.123 144.126C320.776 143.545 319.73 144.13 319.719 144.136C319.563 144.225 319.358 144.181 319.26 144.037C319.163 143.893 319.211 143.703 319.366 143.614C319.421 143.582 320.732 142.848 322.404 143.57C322.57 143.642 322.643 143.825 322.566 143.979C322.54 144.029 322.503 144.068 322.457 144.098Z" fill="#263238"/>
<path d="M310.533 144.337C310.484 144.3 310.446 144.249 310.426 144.189C310.372 144.025 310.47 143.851 310.644 143.8C312.389 143.294 313.559 144.203 313.618 144.238C313.758 144.347 313.777 144.543 313.66 144.675C313.545 144.806 313.338 144.824 313.198 144.716C313.151 144.676 312.24 143.987 310.839 144.393C310.729 144.425 310.615 144.401 310.533 144.337Z" fill="#263238"/>
<path d="M333.932 136.715C334.186 135.136 333.658 131.943 329.693 131.695C325.728 131.448 322.438 132.515 322.029 130.115C321.619 127.715 318.457 128.201 318.089 130.342C318.089 130.342 309.968 128.366 311.543 134.067C311.543 134.067 307.89 134.631 308.108 137.35C308.327 140.068 309.717 141.946 312.09 140.937C314.462 139.928 314.811 139.951 315.492 141.183C316.174 142.414 318.535 141.826 318.535 141.826C318.535 141.826 316.996 142.114 316.826 140.944C316.826 140.944 318.213 142.048 320.452 141.01C322.69 139.971 323.506 142.242 323.506 142.242C323.506 142.242 324.77 141.753 323.71 140.347C323.71 140.347 327.248 142.433 329.849 141.405C332.451 140.378 333.548 139.103 333.932 136.715Z" fill="#263238"/>
<path d="M319.457 154.951C319.457 154.951 320.903 154.509 322.145 153.855" stroke="#263238" stroke-width="0.6436" stroke-miterlimit="10" stroke-linecap="round" stroke-linejoin="round"/>
<path d="M102.783 231.431H106.37L116.357 286.05H112.77L102.783 231.431Z" fill="#263238"/>
<path d="M116.099 231.431H119.686L129.674 286.05H126.086L116.099 231.431Z" fill="#263238"/>
<path d="M129.415 231.431H133.003L142.99 286.05H139.403L129.415 231.431Z" fill="#263238"/>
<path opacity="0.4" d="M102.783 231.431H106.37L116.357 286.05H112.77L102.783 231.431Z" fill="white"/>
<path opacity="0.4" d="M116.099 231.431H119.686L129.674 286.05H126.086L116.099 231.431Z" fill="white"/>
<path opacity="0.4" d="M129.415 231.431H133.003L142.99 286.05H139.403L129.415 231.431Z" fill="white"/>
<path d="M133.438 287.464L133.739 299.539L135.104 354.162H139.606L140.962 299.539L141.262 287.464H133.438Z" fill="#263238"/>
<path opacity="0.4" d="M133.438 287.464L133.739 299.539L135.104 354.162H139.606L140.962 299.539L141.262 287.464H133.438Z" fill="white"/>
<path opacity="0.2" d="M133.438 287.464L133.739 299.872H140.962L141.262 287.464H133.438Z" fill="black"/>
<path d="M108.988 353.968L113.147 288.317H119.947L114.124 353.968H108.988Z" fill="#263238"/>
<path opacity="0.4" d="M114.136 353.968H108.996L112.771 294.21L113.145 288.239H119.944L119.42 294.21L114.136 353.968Z" fill="white"/>
<path opacity="0.2" d="M119.944 288.239L119.42 294.443H112.77L113.145 288.239H119.944Z" fill="black"/>
<path d="M160.582 353.968L154.758 288.317H161.557L165.717 353.968H160.582Z" fill="#263238"/>
<path opacity="0.4" d="M160.569 353.968L155.285 294.21L154.761 288.239H161.56L161.935 294.21L165.71 353.968H160.569Z" fill="white"/>
<path opacity="0.2" d="M154.761 288.239L155.285 294.443H161.935L161.56 288.239H154.761Z" fill="black"/>
<path d="M113.666 281.517H161.04C163.338 281.517 165.201 283.253 165.201 285.395V290.583H109.505V285.395C109.505 283.253 111.367 281.517 113.666 281.517Z" fill="#1B2459"/>
<path d="M108.982 237.739C114.756 234.482 122.773 234.482 130.435 237.739C134.307 239.321 138.888 239.77 140.917 237.491C144.37 234.137 138.309 224.202 126.675 221.056C118.349 218.831 110.107 218.831 103.07 221.056C93.2601 224.202 92.958 234.138 98.3552 237.491C101.707 239.769 106.023 239.32 108.982 237.739Z" fill="#1B2459"/>
<path opacity="0.3" d="M113.666 281.517H161.04C163.338 281.517 165.201 283.253 165.201 285.395V290.583H109.505V285.395C109.505 283.253 111.367 281.517 113.666 281.517Z" fill="black"/>
<path opacity="0.3" d="M108.982 237.739C114.756 234.482 122.773 234.482 130.435 237.739C134.307 239.321 138.888 239.77 140.917 237.491C144.37 234.137 138.309 224.202 126.675 221.056C118.349 218.831 110.107 218.831 103.07 221.056C93.2601 224.202 92.958 234.138 98.3552 237.491C101.707 239.769 106.023 239.32 108.982 237.739Z" fill="black"/>
<path d="M108.51 286.05H166.196C167.12 286.05 167.87 286.749 167.87 287.61V289.023C167.87 289.885 167.12 290.582 166.196 290.582H108.51C107.585 290.582 106.835 289.884 106.835 289.023V287.61C106.835 286.749 107.585 286.05 108.51 286.05Z" fill="#263238"/>
<path opacity="0.6" d="M108.51 286.05H166.196C167.12 286.05 167.87 286.749 167.87 287.61V289.023C167.87 289.885 167.12 290.582 166.196 290.582H108.51C107.585 290.582 106.835 289.884 106.835 289.023V287.61C106.835 286.749 107.585 286.05 108.51 286.05Z" fill="white"/>
<path d="M186.493 193.35C191.779 198.777 197.572 209.792 181.375 213.258C165.178 216.725 167.469 200.526 171.544 194.368C175.619 188.209 183.126 189.894 186.493 193.35Z" fill="#263238"/>
<path d="M197.589 241.503L205.283 237.449L200.454 231.827C200.454 231.827 194.649 233.956 194.668 238.752L197.589 241.503Z" fill="#CE7A63"/>
<path d="M208.665 232.506L203.99 229.119L200.454 231.828L205.283 237.449L208.665 232.506Z" fill="#CE7A63"/>
<path d="M174.812 221.982C178.231 224.18 180.326 240.709 182.451 240.738C184.554 240.767 195.119 236.093 195.119 236.093L198.388 242.458C198.388 242.458 182.444 251.791 178.588 251.212C174.662 250.624 168.539 235.467 168.539 235.467L174.812 221.982Z" fill="#1B2459"/>
<path opacity="0.6" d="M198.387 242.458C198.387 242.458 182.441 251.793 178.585 251.216C177.345 251.028 175.885 249.383 174.463 247.22C171.394 242.542 168.541 235.465 168.541 235.465L170.997 230.187L174.816 221.985C178.234 224.183 180.326 240.709 182.45 240.739C184.552 240.769 195.121 236.093 195.121 236.093L198.387 242.458Z" fill="white"/>
<path opacity="0.2" d="M174.571 228.28C174.571 228.28 176.979 238.72 174.463 247.22C171.394 242.542 168.541 235.465 168.541 235.465L170.997 230.187C172.038 229.391 173.234 228.743 174.571 228.28Z" fill="black"/>
<path d="M171.121 218.635C171.121 218.635 177.47 227.844 166.933 257.309C165.696 260.768 166.701 271.452 166.701 271.452L147.621 264.483C147.621 264.483 151.758 225.313 171.121 218.635Z" fill="#1B2459"/>
<path opacity="0.7" d="M171.121 218.635C171.121 218.635 177.47 227.844 166.933 257.309C165.696 260.768 166.701 271.452 166.701 271.452L147.621 264.483C147.621 264.483 151.758 225.313 171.121 218.635Z" fill="white"/>
<path opacity="0.4" d="M171.121 218.635C171.121 218.635 177.47 227.844 166.933 257.309C165.696 260.768 166.701 271.452 166.701 271.452L147.621 264.483C147.621 264.483 151.758 225.313 171.121 218.635Z" fill="black"/>
<path d="M171.121 218.635C171.121 218.635 175.591 221.666 175.837 223.523C176.493 228.477 166.809 257.986 166.809 257.986C166.809 257.986 171.235 234.743 171.121 218.635Z" fill="#1B2459"/>
<path opacity="0.7" d="M175.836 223.525C176.029 224.988 175.323 228.576 174.239 232.921C173.728 234.948 173.136 237.147 172.512 239.363L172.503 239.365C170.006 248.235 166.988 257.466 166.82 257.97C166.895 257.581 168.201 250.626 169.351 241.811C169.355 241.793 169.352 241.777 169.354 241.75C169.374 241.676 169.378 241.614 169.38 241.544C169.44 241.132 169.499 240.72 169.548 240.301C169.834 238.034 170.103 235.658 170.34 233.263C170.829 228.269 171.154 223.17 171.12 218.633C171.12 218.633 171.554 218.925 172.159 219.389C173.494 220.407 175.67 222.247 175.836 223.525Z" fill="white"/>
<path d="M170.737 217.767C170.737 217.767 173.113 219.585 173.55 223.16L171.994 224.322L173.388 228.464C173.388 228.464 171.409 237.254 169.346 241.86C169.346 241.86 171.128 223.718 170.737 217.767Z" fill="#1B2459"/>
<path opacity="0.6" d="M173.548 223.159L171.991 224.326L173.385 228.466C173.385 228.466 172.937 230.489 172.238 233.093C171.633 235.313 170.867 237.95 170.041 240.146C169.813 240.75 169.588 241.326 169.349 241.845C169.347 241.837 169.345 241.829 169.35 241.811C169.354 241.792 169.351 241.776 169.353 241.749C169.373 241.675 169.377 241.613 169.379 241.543C169.401 241.287 169.439 240.862 169.495 240.32C169.636 238.77 169.867 236.193 170.091 233.279C170.524 227.732 170.944 220.971 170.734 217.765C170.734 217.765 171.444 218.313 172.158 219.389C172.756 220.282 173.346 221.541 173.548 223.159Z" fill="white"/>
<path d="M198.85 309.169C194.932 329.307 192.725 346.526 192.725 346.526L187.558 347.133C186.929 337.971 187.212 323.87 187.723 311.027C188.351 294.986 189.332 280.914 189.332 280.914C184.079 280.914 178.865 280.973 173.917 281.061C156.091 281.368 141.76 282.078 141.76 282.078L157.882 252.807L160.552 261.069C160.552 261.069 203.004 265.994 207.096 276.509C208.258 279.481 202.195 291.966 198.85 309.169Z" fill="#E4897B"/>
<path d="M194.497 345.927C194.497 345.927 195.024 343.527 196.339 343.911C197.854 344.353 194.497 345.927 194.497 345.927ZM194.497 345.927C194.497 345.927 197.371 344.737 197.779 345.667C198.395 347.075 194.497 345.927 194.497 345.927Z" stroke="#577AFA" stroke-width="0.4169" stroke-miterlimit="10" stroke-linecap="round" stroke-linejoin="round"/>
<path opacity="0.2" d="M187.723 311.028C188.35 294.987 189.332 280.915 189.332 280.915C184.079 280.915 178.865 280.974 173.917 281.062L170.47 269.229L188.068 267.721C188.068 267.721 197.531 272.412 197.374 278.632C197.271 282.943 191.351 300.593 187.723 311.028Z" fill="black"/>
<path d="M154.646 262.423C154.646 262.423 157.504 257.984 157.504 251.69L133.186 245.265C133.186 245.265 118.976 274.064 128.326 282.92C130.399 284.884 134.464 285.768 138.615 285.736C138.615 285.736 149.781 286.914 171.728 284.014C171.728 284.014 164.609 320.351 162.686 340.922L166.813 341.401C166.813 341.401 191.456 283.46 191.273 276.462C191.091 269.463 181.804 268.067 154.646 262.423Z" fill="#E4897B"/>
<path d="M174.201 352.853C173.402 352.251 172.492 351.789 171.516 351.492C171.516 351.492 168.594 348.792 167.188 340.661L163.365 339.732C162.035 339.432 160.646 339.937 159.886 340.998C159.779 341.141 159.697 341.3 159.642 341.466C159.445 342.338 159.309 343.22 159.233 344.107C158.848 346.859 159.179 353.035 159.179 353.035H159.869L160.144 347.43C160.246 345.527 161.809 347.759 162.256 349.809C162.704 351.857 163.654 354.038 168.13 354.141C173.353 354.236 175.52 354.046 174.201 352.853Z" fill="#263238"/>
<path d="M199.33 352.853C198.531 352.251 197.621 351.789 196.644 351.492C196.644 351.492 193.723 348.792 192.317 340.661L188.493 339.732C187.164 339.432 185.774 339.937 185.014 340.998C184.908 341.141 184.826 341.3 184.771 341.466C184.574 342.338 184.438 343.22 184.362 344.107C183.977 346.859 184.307 353.035 184.307 353.035H184.998L185.273 347.43C185.375 345.527 186.937 347.759 187.385 349.809C187.833 351.857 188.783 354.038 193.259 354.141C198.482 354.236 200.649 354.046 199.33 352.853Z" fill="#263238"/>
<path d="M162.809 339.656C164.653 340.587 165.982 349.341 169.822 349.016C169.822 349.016 167.586 341.508 167.88 338.876L162.809 339.656Z" fill="#E4897B"/>
<path d="M188.065 339.667C190.365 340.187 192.112 348.666 194.952 349.016C194.952 349.016 192.88 342.695 193.885 337.209C193.885 337.209 191.888 336.63 190.128 337.209C188.367 337.788 188.065 339.667 188.065 339.667Z" fill="#E4897B"/>
<path d="M168.33 285.55C168.33 285.55 164.523 266.342 195.55 268.652C195.55 268.652 179.048 262.625 161.184 260.425L157.884 252.81L133.186 245.265C133.186 245.265 118.525 273.423 127.195 283.266C135.865 293.109 168.33 285.55 168.33 285.55Z" fill="#263238"/>
<path d="M173.239 233.127C170.162 238.991 158.693 251.493 158.693 251.493L131.866 245.441C136.824 240.03 141.728 227.903 147.993 212.367C149.445 208.765 153.73 207.292 157.197 209.204C158.123 209.715 159.091 210.275 160.063 210.878C163.841 213.221 166.918 215.168 169.942 217.669C170.944 218.497 171.958 219.389 172.912 220.257C176.36 223.393 175.332 229.137 173.239 233.127Z" fill="#1B2459"/>
<path d="M171.62 203.455L171.731 203.997L173.313 211.835L173.315 211.843C173.299 211.855 173.275 211.869 173.258 211.881C173.258 211.881 173.258 211.881 173.249 211.883C171.919 212.672 170.682 213.582 170.142 214.676C169.578 215.785 169.712 217.077 171.12 218.635C171.12 218.635 171.715 220.222 167.43 220.976C164.673 213.565 161.249 211.845 161.249 211.845C165.257 211.645 169.564 206.472 171.62 203.455Z" fill="#CE7A63"/>
<path opacity="0.2" d="M171.731 203.997L173.313 211.835C173.297 211.847 173.281 211.858 173.258 211.88C173.258 211.88 173.258 211.88 173.249 211.882C171.919 212.672 170.682 213.581 170.142 214.675C169.214 212.045 168.649 206.932 171.731 203.997Z" fill="black"/>
<path d="M166.672 219.311C164.345 218.144 161.34 220.654 161.34 220.654C161.34 220.654 158.921 213.845 159.179 210.393C160.22 210.542 161.89 210.569 161.89 210.569C161.89 210.569 166.339 217.334 166.672 219.311Z" fill="#1B2459"/>
<path d="M169.3 220.497C169.3 220.497 170.389 220.757 170.739 223.797C173.033 219.816 170.958 216.545 170.958 216.545C170.958 216.545 170.575 215.976 169.838 215.73C169.737 215.965 169.802 216.582 170.11 217.195C170.674 218.313 169.3 220.497 169.3 220.497Z" fill="#1B2459"/>
<path opacity="0.2" d="M166.672 219.311C164.345 218.144 161.34 220.654 161.34 220.654C161.34 220.654 158.921 213.845 159.179 210.393C160.22 210.542 161.89 210.569 161.89 210.569C161.89 210.569 166.339 217.334 166.672 219.311Z" fill="black"/>
<path opacity="0.2" d="M169.3 220.497C169.3 220.497 170.389 220.757 170.739 223.797C173.033 219.816 170.958 216.545 170.958 216.545C170.958 216.545 170.575 215.976 169.838 215.73C169.737 215.965 169.802 216.582 170.11 217.195C170.674 218.313 169.3 220.497 169.3 220.497Z" fill="black"/>
<path d="M176.858 197.482C172.274 201.762 170.242 203.479 169.775 207.888C169.072 214.52 175.331 219.02 181.101 216.148C186.296 213.564 192.92 206.998 190.943 200.837C188.996 194.767 181.443 193.202 176.858 197.482Z" fill="#CE7A63"/>
<path d="M192.661 197.898C194.698 201.891 193.733 209.485 189.974 204.923C188.246 205.75 186.578 202.83 186.28 200.256C185.192 201.177 181.582 200.427 180.839 197.381C180.808 199.361 176.571 201.589 175.266 199.85C173.961 198.111 170.625 194.747 178.047 191.905C185.469 189.063 190.485 193.631 192.661 197.898Z" fill="#263238"/>
<path d="M184.958 209.095C184.557 209.438 184.407 209.922 184.623 210.174C184.84 210.426 185.34 210.352 185.742 210.009C186.143 209.665 186.293 209.182 186.076 208.93C185.861 208.677 185.36 208.751 184.958 209.095Z" fill="#263238"/>
<path d="M185.959 208.836L187.032 209.525C187.032 209.525 185.871 209.694 185.959 208.836Z" fill="#263238"/>
<path d="M182.79 208.351C182.79 208.351 181.624 210.485 181.408 211.92C180.476 211.835 179.96 210.775 179.96 210.775L182.79 208.351Z" fill="#BA4D3C"/>
<path d="M176.636 207.35C176.47 207.138 176.274 206.926 176.045 206.721C175.983 206.666 175.886 206.672 175.83 206.736C175.773 206.798 175.776 206.893 175.84 206.951C177.519 208.449 177.233 210.347 177.23 210.366C177.217 210.45 177.273 210.527 177.356 210.538C177.439 210.55 177.517 210.492 177.531 210.409C177.542 210.335 177.774 208.807 176.636 207.35Z" fill="#263238"/>
<path d="M171.561 199.226C171.032 200.563 171.187 201.947 171.697 202.932C172.463 204.412 174.225 203.923 175.167 202.482C176.015 201.185 176.64 198.853 175.315 197.861C174.009 196.886 172.166 197.697 171.561 199.226Z" fill="#CE7A63"/>
<path d="M181.68 202.724C181.706 202.798 181.762 202.859 181.842 202.891C183.093 203.382 183.259 204.459 183.261 204.471C183.285 204.63 183.44 204.737 183.61 204.704C183.78 204.671 183.899 204.513 183.876 204.35C183.868 204.293 183.659 202.943 182.108 202.333C181.953 202.272 181.768 202.347 181.695 202.502C181.659 202.576 181.657 202.655 181.68 202.724Z" fill="#263238"/>
<path d="M189.328 208.845C189.362 208.912 189.422 208.963 189.499 208.987C189.658 209.035 189.833 208.946 189.887 208.785C190.443 207.18 189.593 206.095 189.556 206.05C189.452 205.921 189.261 205.904 189.128 206.011C188.995 206.119 188.97 206.31 189.072 206.439C189.106 206.481 189.752 207.332 189.311 208.608C189.282 208.691 189.291 208.776 189.328 208.845Z" fill="#263238"/>
<path d="M181.317 205.439L182.39 206.128C182.39 206.128 181.229 206.297 181.317 205.439Z" fill="#263238"/>
<path d="M181.885 205.804C181.885 205.804 181.979 204.219 180.319 204.086C180.319 204.086 181.378 204.538 181.328 205.676L181.885 205.804Z" fill="#263238"/>
<path d="M134.641 243.697L133.285 247.22L157.884 252.81L159.604 250.645L134.641 243.697Z" fill="#263238"/>
<path opacity="0.2" d="M134.641 243.697L133.285 247.22L157.884 252.81L159.604 250.645L134.641 243.697Z" fill="white"/>
<path d="M152.325 251.667L147.903 250.692C147.67 250.64 147.542 250.405 147.636 250.2L148.776 247.71C148.855 247.539 149.061 247.452 149.251 247.509L153.668 248.85C153.892 248.918 153.999 249.156 153.894 249.353L152.76 251.477C152.679 251.626 152.499 251.705 152.325 251.667Z" fill="white"/>
<path d="M159.176 210.389C159.176 210.389 159.067 211.729 158.621 214.052C158.539 214.476 158.448 214.943 158.339 215.434C158.33 215.477 158.321 215.519 158.311 215.562C158.23 215.918 158.148 216.291 158.057 216.681C158.011 216.876 157.966 217.08 157.911 217.283C157.875 217.461 157.829 217.639 157.775 217.826C157.383 219.386 156.874 221.15 156.237 223.075C156.1 223.482 155.955 223.906 155.8 224.33C155.372 225.551 154.89 226.823 154.344 228.137C153.57 229.995 152.679 231.936 151.659 233.938C151.341 234.557 151.013 235.184 150.667 235.812C150.604 235.914 150.549 236.015 150.495 236.117C150.285 236.499 150.067 236.88 149.848 237.262C149.848 237.27 149.839 237.279 149.839 237.287C149.767 237.432 149.676 237.576 149.594 237.72C149.557 237.788 149.512 237.864 149.475 237.932C147.446 241.392 145.007 244.953 142.068 248.498C141.795 248.82 141.522 249.134 141.249 249.456C140.976 249.787 140.685 250.109 140.394 250.44C140.048 250.83 139.693 251.228 139.329 251.619C139.092 251.873 138.847 252.136 138.61 252.39C138 253.043 137.363 253.688 136.708 254.332C136.38 254.654 136.053 254.968 135.716 255.29C135.716 255.29 135.407 255.748 134.915 256.571C134.806 256.757 134.688 256.952 134.56 257.173C134.369 257.495 134.16 257.86 133.942 258.258C133.796 258.521 133.641 258.793 133.487 259.089C133.414 259.234 133.332 259.386 133.25 259.539C133.086 259.844 132.932 260.166 132.768 260.497C132.595 260.828 132.431 261.176 132.267 261.532C132.094 261.888 131.931 262.252 131.767 262.626C131.512 263.194 131.266 263.779 131.03 264.381C130.866 264.788 130.711 265.204 130.556 265.619C130.247 266.459 129.956 267.324 129.701 268.214C129.701 268.214 129.064 268.248 128.118 268.18C127.908 268.172 127.672 268.155 127.435 268.129C125.606 267.934 123.094 267.391 121.638 265.84C121.638 265.84 123.058 256.418 130.738 244.512C130.738 244.512 135.789 234.548 140.539 225.271C141.058 224.271 141.567 223.278 142.068 222.303C142.441 221.574 142.805 220.853 143.169 220.158C143.415 219.691 143.651 219.233 143.879 218.784C144.57 217.436 145.226 216.172 145.817 215.044C146.017 214.663 146.208 214.307 146.381 213.959C146.563 213.611 146.736 213.28 146.9 212.975C147.064 212.661 147.219 212.365 147.364 212.093C147.801 211.271 148.156 210.626 148.392 210.202C148.656 209.727 148.975 209.329 149.321 208.99C150.376 207.989 151.732 207.59 153.115 207.59C153.27 207.59 153.425 207.599 153.579 207.607C153.68 207.607 153.771 207.616 153.871 207.633C153.971 207.641 154.062 207.65 154.162 207.667C154.289 207.684 154.408 207.701 154.535 207.726C154.644 207.743 154.753 207.768 154.863 207.794C155.217 207.87 155.563 207.972 155.9 208.091C156.018 208.133 156.127 208.167 156.237 208.218C156.855 208.464 157.42 208.769 157.902 209.117C158.175 209.303 158.421 209.507 158.63 209.719C158.848 209.939 159.031 210.168 159.176 210.389Z" fill="#1B2459"/>
<path opacity="0.7" d="M159.176 210.389C159.176 210.389 159.067 211.729 158.621 214.052C158.539 214.476 158.448 214.943 158.339 215.434C158.33 215.477 158.321 215.519 158.311 215.562C158.23 215.918 158.148 216.291 158.057 216.681C158.011 216.876 157.966 217.08 157.911 217.283C157.875 217.461 157.829 217.639 157.775 217.826C157.383 219.386 156.874 221.15 156.237 223.075C156.1 223.482 155.955 223.906 155.8 224.33C155.372 225.551 154.89 226.823 154.344 228.137C153.57 229.995 152.679 231.936 151.659 233.938C151.341 234.557 151.004 235.184 150.667 235.812C150.604 235.914 150.549 236.015 150.495 236.117C150.285 236.499 150.067 236.88 149.848 237.262C149.848 237.27 149.839 237.279 149.839 237.287C149.83 237.296 149.83 237.313 149.83 237.321C149.785 237.389 149.748 237.448 149.721 237.516C149.685 237.584 149.639 237.652 149.594 237.72C149.557 237.788 149.512 237.864 149.475 237.932C147.446 241.392 145.007 244.953 142.068 248.498C141.795 248.82 141.522 249.134 141.249 249.456C140.976 249.787 140.685 250.109 140.394 250.44C140.048 250.83 139.693 251.228 139.329 251.619C139.092 251.873 138.847 252.136 138.61 252.39C138 253.043 137.363 253.688 136.708 254.332C136.39 254.654 136.062 254.968 135.725 255.29C135.725 255.29 135.416 255.748 134.915 256.571C134.806 256.757 134.688 256.952 134.56 257.173C134.369 257.495 134.16 257.86 133.942 258.258C133.796 258.521 133.641 258.793 133.487 259.089C133.414 259.234 133.332 259.386 133.25 259.539C133.095 259.844 132.932 260.166 132.768 260.497C132.604 260.828 132.44 261.176 132.267 261.532C132.103 261.888 131.931 262.252 131.767 262.626C131.521 263.194 131.266 263.779 131.03 264.381C130.866 264.788 130.711 265.204 130.556 265.619C130.247 266.459 129.956 267.324 129.701 268.214C129.701 268.214 129.064 268.248 128.118 268.18C127.908 268.172 127.681 268.155 127.435 268.129C125.606 267.934 123.094 267.391 121.638 265.84C121.638 265.84 123.058 256.418 130.738 244.512C130.738 244.512 135.789 234.548 140.539 225.271C141.058 224.271 141.567 223.278 142.068 222.303C142.441 221.574 142.805 220.853 143.169 220.158C143.415 219.691 143.651 219.233 143.879 218.784C144.57 217.436 145.226 216.172 145.817 215.044C146.017 214.663 146.208 214.307 146.381 213.959C146.563 213.611 146.736 213.28 146.9 212.975C147.064 212.661 147.219 212.365 147.364 212.093C147.801 211.271 148.147 210.626 148.383 210.202C148.656 209.727 148.975 209.32 149.321 208.99C150.376 207.989 151.732 207.59 153.115 207.59C153.27 207.59 153.425 207.599 153.579 207.607C153.68 207.607 153.771 207.616 153.871 207.633C153.971 207.641 154.062 207.65 154.162 207.667C154.289 207.684 154.408 207.701 154.535 207.726C154.644 207.743 154.753 207.768 154.863 207.794C155.217 207.87 155.563 207.972 155.9 208.091C156.018 208.133 156.127 208.167 156.237 208.218C156.855 208.464 157.42 208.769 157.902 209.117C158.075 209.244 158.239 209.371 158.393 209.507C158.475 209.575 158.557 209.651 158.63 209.719C158.848 209.939 159.031 210.168 159.176 210.389Z" fill="white"/>
<path d="M158.215 209.556C159.908 208.987 160.819 210.051 160.819 210.051C160.819 210.051 160.811 221.442 149.716 237.512C149.716 237.512 154.071 229.799 153.895 218.061L157.36 215.863L154.793 212.337C154.793 212.337 156.551 210.115 158.215 209.556Z" fill="#1B2459"/>
<path opacity="0.6" d="M160.818 210.048C160.818 210.048 160.808 218.096 154.237 230.196C152.992 232.472 151.521 234.889 149.77 237.426C149.782 237.398 149.801 237.359 149.828 237.319C149.833 237.3 149.838 237.281 149.852 237.262C150.355 236.288 152.152 232.543 153.172 226.882C153.636 224.31 153.942 221.343 153.891 218.061L157.363 215.86L154.793 212.338C154.793 212.338 156.553 210.112 158.219 209.556C158.28 209.535 158.34 209.514 158.395 209.511C159.974 209.059 160.818 210.048 160.818 210.048Z" fill="white"/>
<path d="M178.259 191.023C178.259 191.023 179.407 181.814 170.559 180.248C162.149 178.76 159.409 189.464 161.519 197.437C163.77 205.941 162.299 208.363 162.299 208.363C162.299 208.363 164.939 208.784 164.459 199.559C163.98 190.334 171.049 183.364 174.66 192.012L178.259 191.023Z" fill="#263238"/>
<path d="M200.788 226.218L202.673 228.861L200.975 229.951L198.713 227.365C198.713 227.365 199.566 225.936 200.788 226.218Z" fill="#263238"/>
<path d="M201.866 222.578L206.193 223.978L205.661 225.822L201.502 224.976C201.502 224.976 200.822 223.542 201.866 222.578Z" fill="#263238"/>
<path opacity="0.05" d="M200.788 226.218L202.673 228.861L200.975 229.951L198.713 227.365C198.713 227.365 199.566 225.936 200.788 226.218Z" fill="white"/>
<path opacity="0.05" d="M201.866 222.578L206.193 223.978L205.661 225.822L201.502 224.976C201.502 224.976 200.822 223.542 201.866 222.578Z" fill="white"/>
<path d="M200.307 223.627L199.766 225.249L197.727 226.706L195.358 226.87L189.063 219.055L188.551 218.417L189.07 216.958L184.197 210.811L187.143 208.745L191.885 215.057L193.657 215.198L194.077 215.73L200.307 223.627Z" fill="#1B2459"/>
<path opacity="0.5" d="M200.307 223.627L199.766 225.249L197.727 226.706L195.358 226.87L189.063 219.055L188.551 218.417L189.07 216.958L184.197 210.811L187.143 208.745L191.885 215.057L193.657 215.198L194.077 215.73L200.307 223.627Z" fill="white"/>
<path d="M194.077 215.73L189.063 219.055L188.551 218.417L189.07 216.958L184.197 210.811L187.143 208.745L191.885 215.057L193.657 215.198L194.077 215.73Z" fill="#263238"/>
<path d="M199.461 226.566L201.12 226.32L201.925 225.234L201.242 222.971L199.461 226.566Z" fill="#263238"/>
<path opacity="0.2" d="M194.077 215.73L189.063 219.055L188.551 218.417L189.07 216.958L184.197 210.811L187.143 208.745L191.885 215.057L193.657 215.198L194.077 215.73Z" fill="white"/>
<path opacity="0.1" d="M199.461 226.566L201.12 226.32L201.925 225.234L201.242 222.971L199.461 226.566Z" fill="white"/>
<path d="M197.308 227.13L201.015 221.235L202.497 222.058L198.753 228.154L197.308 227.13Z" fill="#263238"/>
<path opacity="0.2" d="M197.308 227.13L201.015 221.235L202.497 222.058L198.753 228.154L197.308 227.13Z" fill="white"/>
<path d="M195.422 229.581L197.483 233.005L197.926 232.765L195.659 229.308L195.422 229.581Z" fill="#263238"/>
<path opacity="0.2" d="M195.422 229.581L197.483 233.005L197.926 232.765L195.659 229.308L195.422 229.581Z" fill="white"/>
<path d="M201.533 245.451L210.721 240.537L211.248 241.451L202.288 246.29L201.533 245.451Z" fill="#263238"/>
<path opacity="0.1" d="M201.533 245.451L210.721 240.537L211.248 241.451L202.288 246.29L201.533 245.451Z" fill="white"/>
<path d="M206.067 233.482L206.982 235.038L202.576 237.29L201.4 235.78L206.067 233.482Z" fill="#263238"/>
<path opacity="0.05" d="M206.067 233.482L206.982 235.038L202.576 237.29L201.4 235.78L206.067 233.482Z" fill="white"/>
<path d="M195.509 236.721L196.864 238.852L211.987 231.047L210.403 228.924L195.509 236.721Z" fill="#263238"/>
<path d="M201.654 237.415L207.243 234.554L207.959 235.758L202.487 238.602L201.654 237.415Z" fill="#263238"/>
<path opacity="0.2" d="M195.509 236.721L196.864 238.852L211.987 231.047L210.403 228.924L195.509 236.721Z" fill="white"/>
<path opacity="0.1" d="M201.654 237.415L207.243 234.554L207.959 235.758L202.487 238.602L201.654 237.415Z" fill="white"/>
<path d="M187.075 223.881L191.976 221.696L196.662 229.889L192.361 232.217L192.222 232.148C191.465 231.77 190.554 231.785 189.812 232.184L189 232.622C188.485 232.899 188.241 233.47 188.411 234.001C189.265 236.689 190.976 239.071 193.317 240.832C193.676 241.102 194.177 241.135 194.573 240.913L195.78 240.165C196.346 239.814 196.69 239.224 196.699 238.591L203.222 235.263L203.685 236.053L200.57 237.694L200.557 241.325L203.28 246.468L200.571 247.909C200.571 247.909 190.3 246.168 186.526 238.899C182.75 231.633 187.075 223.881 187.075 223.881Z" fill="#1B2459"/>
<path opacity="0.7" d="M187.075 223.881L191.976 221.696L196.662 229.889L192.361 232.217L192.222 232.148C191.465 231.77 190.554 231.785 189.812 232.184L189 232.622C188.485 232.899 188.241 233.47 188.411 234.001C189.265 236.689 190.976 239.071 193.317 240.832C193.676 241.102 194.177 241.135 194.573 240.913L195.78 240.165C196.346 239.814 196.69 239.224 196.699 238.591L203.222 235.263L203.685 236.053L200.57 237.694L200.557 241.325L203.28 246.468L200.571 247.909C200.571 247.909 190.3 246.168 186.526 238.899C182.75 231.633 187.075 223.881 187.075 223.881Z" fill="white"/>
<path d="M194.419 229.716C194.534 230.455 193.985 231.139 193.193 231.247C192.401 231.354 191.666 230.843 191.55 230.104C191.435 229.366 191.984 228.681 192.777 228.574C193.569 228.467 194.305 228.978 194.419 229.716Z" fill="#263238"/>
<path d="M205.17 243.033L206.25 244.545L211.713 241.657L210.714 240.179L205.17 243.033Z" fill="#263238"/>
<path d="M194.731 223.34C194.926 224.6 193.989 225.77 192.637 225.953C191.284 226.135 190.029 225.262 189.833 224.002C189.637 222.742 190.575 221.572 191.927 221.389C193.28 221.206 194.535 222.08 194.731 223.34Z" fill="#263238"/>
<path opacity="0.1" d="M194.419 229.716C194.534 230.455 193.985 231.139 193.193 231.247C192.401 231.354 191.666 230.843 191.55 230.104C191.435 229.366 191.984 228.681 192.777 228.574C193.569 228.467 194.305 228.978 194.419 229.716Z" fill="white"/>
<path opacity="0.2" d="M205.17 243.033L206.25 244.545L211.713 241.657L210.714 240.179L205.17 243.033Z" fill="white"/>
<path opacity="0.2" d="M194.731 223.34C194.926 224.6 193.989 225.77 192.637 225.953C191.284 226.135 190.029 225.262 189.833 224.002C189.637 222.742 190.575 221.572 191.927 221.389C193.28 221.206 194.535 222.08 194.731 223.34Z" fill="white"/>
<path opacity="0.5" d="M193.507 223.506C193.605 224.136 193.135 224.721 192.459 224.812C191.783 224.902 191.155 224.466 191.058 223.836C190.959 223.206 191.429 222.62 192.105 222.53C192.781 222.438 193.408 222.875 193.507 223.506Z" fill="white"/>
<path d="M211.74 248.076H198.275V249.538H211.74V248.076Z" fill="#263238"/>
<path opacity="0.1" d="M211.74 248.076H198.275V249.538H211.74V248.076Z" fill="white"/>
<path d="M190.948 249.538L195.104 242.808C195.56 242.068 196.425 241.629 197.339 241.673C198.597 241.733 199.598 242.676 199.648 243.849L199.892 249.538H190.948Z" fill="#1B2459"/>
<path opacity="0.5" d="M190.948 249.538L195.104 242.808C195.56 242.068 196.425 241.629 197.339 241.673C198.597 241.733 199.598 242.676 199.648 243.849L199.892 249.538H190.948Z" fill="white"/>
<path d="M197.086 245.504C197.886 245.504 198.535 244.899 198.535 244.153C198.535 243.407 197.886 242.802 197.086 242.802C196.285 242.802 195.636 243.407 195.636 244.153C195.636 244.899 196.285 245.504 197.086 245.504Z" fill="#263238"/>
<path d="M214.643 249.316H187.426V251.312H214.643V249.316Z" fill="#263238"/>
<path opacity="0.1" d="M197.086 245.504C197.886 245.504 198.535 244.899 198.535 244.153C198.535 243.407 197.886 242.802 197.086 242.802C196.285 242.802 195.636 243.407 195.636 244.153C195.636 244.899 196.285 245.504 197.086 245.504Z" fill="white"/>
<path opacity="0.2" d="M214.643 249.316H187.426V251.312H214.643V249.316Z" fill="white"/>
<path d="M180.312 224.628L188.021 220.598L190.676 227.36C190.676 227.36 185.712 230.882 181.322 228.381L180.312 224.628Z" fill="#CE7A63"/>
<path d="M194.311 220.466L194.995 225.948L190.677 227.361L188.021 220.598L194.311 220.466Z" fill="#CE7A63"/>
<path opacity="0.2" d="M177.905 226.258C176.931 228.132 175.839 230.159 174.711 232.194H174.701L172.117 232.457L171.598 232.508L171.544 232.517C172.044 231.033 172.872 228.565 173.773 225.766L174.019 225.8L175.912 226.021L177.905 226.258Z" fill="black"/>
<path d="M150.86 207.983C157.374 204.908 162.206 225.614 164.688 226.984C167.169 228.355 182.471 222.347 182.471 222.347L184.565 230.824C184.565 230.824 168.182 238.695 162.868 238.159C154.888 237.354 150.066 227.02 148.123 217.092C147.253 212.645 149.132 208.799 150.86 207.983Z" fill="#1B2459"/>
<path opacity="0.7" d="M150.86 207.983C157.374 204.908 162.206 225.614 164.688 226.984C167.169 228.355 182.471 222.347 182.471 222.347L184.565 230.824C184.565 230.824 168.182 238.695 162.868 238.159C154.888 237.354 150.066 227.02 148.123 217.092C147.253 212.645 149.132 208.799 150.86 207.983Z" fill="white"/>
<path d="M207.693 354.162H212.305V253.849H207.693V354.162Z" fill="#263238"/>
<path d="M161.572 354.162H166.184V253.849H161.572V354.162Z" fill="#263238"/>
<path d="M299.344 354.162H303.956V253.849H299.344V354.162Z" fill="#263238"/>
<path opacity="0.6" d="M207.693 354.162H212.305V253.849H207.693V354.162Z" fill="white"/>
<path opacity="0.6" d="M161.572 354.162H166.184V253.849H161.572V354.162Z" fill="white"/>
<path opacity="0.6" d="M299.344 354.162H303.956V253.849H299.344V354.162Z" fill="white"/>
<path d="M160.734 257.757H304.364V252.002L160.734 252.002V257.757Z" fill="#263238"/>
<path opacity="0.6" d="M160.734 257.757H304.364V252.002L160.734 252.002V257.757Z" fill="white"/>
<path d="M158.607 253.138H306.489C307.163 253.138 307.71 252.629 307.71 252.002C307.71 251.374 307.164 250.865 306.489 250.865H158.607C157.934 250.865 157.388 251.373 157.388 252.002C157.388 252.629 157.934 253.138 158.607 253.138Z" fill="#263238"/>
<path opacity="0.7" d="M158.607 253.138H306.489C307.163 253.138 307.71 252.629 307.71 252.002C307.71 251.374 307.164 250.865 306.489 250.865H158.607C157.934 250.865 157.388 251.373 157.388 252.002C157.388 252.629 157.934 253.138 158.607 253.138Z" fill="white"/>
<path d="M253.222 354.162H257.833V253.849H253.222V354.162Z" fill="#263238"/>
<path opacity="0.6" d="M253.222 354.162H257.833V253.849H253.222V354.162Z" fill="white"/>
<path d="M218.974 248.701V250.7C218.974 251.213 219.622 251.423 220.166 251.423H263.046C263.597 251.423 264.259 251.213 264.259 250.7V248.701H218.974Z" fill="#1B2459"/>
<path opacity="0.4" d="M218.974 248.701V250.7C218.974 251.213 219.622 251.423 220.166 251.423H263.046C263.597 251.423 264.259 251.213 264.259 250.7V248.701H218.974Z" fill="white"/>
<path opacity="0.2" d="M218.974 248.701V250.7C218.974 251.213 219.622 251.423 220.166 251.423H248.448C248.997 251.423 249.651 251.213 249.651 250.7V248.701H218.974Z" fill="black"/>
<path d="M211.799 227.94L216.904 249.515C217.07 250.226 217.812 250.742 218.562 250.742H246.446C247.188 250.742 247.665 250.096 247.493 249.386L242.395 227.975C242.223 227.27 241.486 226.919 240.737 226.919H212.853C212.104 226.92 211.633 227.235 211.799 227.94Z" fill="#1B2459"/>
<path opacity="0.4" d="M211.799 227.94L216.904 249.515C217.07 250.226 217.812 250.742 218.562 250.742H245.498C246.247 250.742 246.717 250.096 246.552 249.386L241.447 227.975C241.282 227.27 240.539 226.919 239.79 226.919H212.854C212.104 226.92 211.633 227.235 211.799 227.94Z" fill="white"/>
<path opacity="0.2" d="M225.548 238.906V238.913C225.548 240.76 227.673 242.261 229.231 242.261C230.789 242.261 231.713 240.76 231.269 238.913C230.825 237.102 229.274 235.626 227.75 235.57C228.194 237.417 227.242 238.913 225.691 238.913C225.657 238.913 225.548 238.913 225.548 238.906Z" fill="black"/>
<path d="M258.494 234.784H257.594V248.708H258.494V234.784Z" fill="#263238"/>
<path d="M283.991 234.784H283.091V248.708H283.991V234.784Z" fill="#263238"/>
<path d="M261.882 248.708C261.088 248.708 260.443 248.108 260.443 247.368V231.852H263.32V247.368C263.321 248.108 262.677 248.708 261.882 248.708Z" fill="#1B2459"/>
<path opacity="0.8" d="M261.882 248.708C261.088 248.708 260.443 248.108 260.443 247.368V231.852H263.32V247.368C263.321 248.108 262.677 248.708 261.882 248.708Z" fill="white"/>
<path d="M260.722 238.323V247.368C260.722 247.965 261.242 248.45 261.882 248.45C262.523 248.45 263.042 247.965 263.042 247.368V238.323H260.722Z" fill="#1B2459"/>
<path d="M263.295 232.095H260.471C260.34 232.095 260.232 231.995 260.232 231.873C260.232 231.751 260.34 231.651 260.471 231.651H263.295C263.426 231.651 263.533 231.751 263.533 231.873C263.532 231.995 263.426 232.095 263.295 232.095Z" fill="#1B2459"/>
<path opacity="0.4" d="M263.295 232.095H260.471C260.34 232.095 260.232 231.995 260.232 231.873C260.232 231.751 260.34 231.651 260.471 231.651H263.295C263.426 231.651 263.533 231.751 263.533 231.873C263.532 231.995 263.426 232.095 263.295 232.095Z" fill="white"/>
<path d="M267.822 248.708C267.027 248.708 266.383 248.108 266.383 247.368V231.852H269.26V247.368C269.26 248.108 268.616 248.708 267.822 248.708Z" fill="#1B2459"/>
<path opacity="0.8" d="M267.822 248.708C267.027 248.708 266.383 248.108 266.383 247.368V231.852H269.26V247.368C269.26 248.108 268.616 248.708 267.822 248.708Z" fill="white"/>
<path d="M266.661 238.323V247.368C266.661 247.965 267.181 248.45 267.822 248.45C268.462 248.45 268.982 247.965 268.982 247.368V238.323H266.661Z" fill="#1B2459"/>
<path d="M269.234 232.095H266.41C266.279 232.095 266.172 231.995 266.172 231.873C266.172 231.751 266.279 231.651 266.41 231.651H269.234C269.365 231.651 269.472 231.751 269.472 231.873C269.472 231.995 269.365 232.095 269.234 232.095Z" fill="#1B2459"/>
<path opacity="0.4" d="M269.234 232.095H266.41C266.279 232.095 266.172 231.995 266.172 231.873C266.172 231.751 266.279 231.651 266.41 231.651H269.234C269.365 231.651 269.472 231.751 269.472 231.873C269.472 231.995 269.365 232.095 269.234 232.095Z" fill="white"/>
<path d="M273.762 248.708C272.968 248.708 272.324 248.108 272.324 247.368V231.852H275.2V247.368C275.201 248.108 274.557 248.708 273.762 248.708Z" fill="#1B2459"/>
<path opacity="0.8" d="M273.762 248.708C272.968 248.708 272.324 248.108 272.324 247.368V231.852H275.2V247.368C275.201 248.108 274.557 248.708 273.762 248.708Z" fill="white"/>
<path d="M272.602 238.323V247.368C272.602 247.965 273.122 248.45 273.762 248.45C274.403 248.45 274.923 247.965 274.923 247.368V238.323H272.602Z" fill="#1B2459"/>
<path d="M275.175 232.095H272.351C272.22 232.095 272.112 231.995 272.112 231.873C272.112 231.751 272.22 231.651 272.351 231.651H275.175C275.306 231.651 275.413 231.751 275.413 231.873C275.412 231.995 275.306 232.095 275.175 232.095Z" fill="#1B2459"/>
<path opacity="0.4" d="M275.175 232.095H272.351C272.22 232.095 272.112 231.995 272.112 231.873C272.112 231.751 272.22 231.651 272.351 231.651H275.175C275.306 231.651 275.413 231.751 275.413 231.873C275.412 231.995 275.306 232.095 275.175 232.095Z" fill="white"/>
<path d="M279.702 248.708C278.907 248.708 278.263 248.108 278.263 247.368V231.852H281.14V247.368C281.141 248.108 280.496 248.708 279.702 248.708Z" fill="#1B2459"/>
<path opacity="0.8" d="M279.702 248.708C278.907 248.708 278.263 248.108 278.263 247.368V231.852H281.14V247.368C281.141 248.108 280.496 248.708 279.702 248.708Z" fill="white"/>
<path d="M278.542 238.323V247.368C278.542 247.965 279.061 248.45 279.702 248.45C280.342 248.45 280.862 247.965 280.862 247.368V238.323H278.542Z" fill="#1B2459"/>
<path d="M281.114 232.095H278.29C278.159 232.095 278.052 231.995 278.052 231.873C278.052 231.751 278.159 231.651 278.29 231.651H281.114C281.245 231.651 281.353 231.751 281.353 231.873C281.353 231.995 281.245 232.095 281.114 232.095Z" fill="#1B2459"/>
<path opacity="0.4" d="M281.114 232.095H278.29C278.159 232.095 278.052 231.995 278.052 231.873C278.052 231.751 278.159 231.651 278.29 231.651H281.114C281.245 231.651 281.353 231.751 281.353 231.873C281.353 231.995 281.245 232.095 281.114 232.095Z" fill="white"/>
<path d="M285.203 247.952H256.381V250.866H285.203V247.952Z" fill="#263238"/>
<path d="M284.888 234.197H256.697V235.372H284.888V234.197Z" fill="#263238"/>
<path opacity="0.2" d="M285.203 247.952H256.381V250.866H285.203V247.952Z" fill="white"/>
<path opacity="0.2" d="M284.888 234.197H256.697V235.372H284.888V234.197Z" fill="white"/>
<path d="M286.512 249.824H255.073V250.865H286.512V249.824Z" fill="#263238"/>
<path d="M300.403 249.132L295.963 242.966V232.541H293.086V242.966L288.645 249.132C288.113 249.872 288.682 250.865 289.636 250.865H299.412C300.367 250.865 300.936 249.872 300.403 249.132Z" fill="#1B2459"/>
<path opacity="0.8" d="M300.403 249.132L295.963 242.966V232.541H293.086V242.966L288.645 249.132C288.113 249.872 288.682 250.865 289.636 250.865H299.412C300.367 250.865 300.936 249.872 300.403 249.132Z" fill="white"/>
<path d="M298.38 247.085H290.666L289.021 249.369C288.866 249.584 288.853 249.848 288.983 250.077C289.113 250.306 289.357 250.441 289.634 250.441H299.411C299.688 250.441 299.932 250.305 300.063 250.077C300.194 249.848 300.18 249.584 300.025 249.369L298.38 247.085Z" fill="#1B2459"/>
<path d="M295.935 232.784H293.112C292.981 232.784 292.873 232.684 292.873 232.562C292.873 232.44 292.981 232.34 293.112 232.34H295.935C296.066 232.34 296.174 232.44 296.174 232.562C296.174 232.684 296.066 232.784 295.935 232.784Z" fill="#1B2459"/>
<path opacity="0.4" d="M295.935 232.784H293.112C292.981 232.784 292.873 232.684 292.873 232.562C292.873 232.44 292.981 232.34 293.112 232.34H295.935C296.066 232.34 296.174 232.44 296.174 232.562C296.174 232.684 296.066 232.784 295.935 232.784Z" fill="white"/>
<defs>
<linearGradient id="paint0_linear_4_36" x1="216.844" y1="96.5651" x2="216.844" y2="166.558" gradientUnits="userSpaceOnUse">
<stop stop-color="#BF1B39"/>
<stop offset="1" stop-color="#577AFA"/>
</linearGradient>
<linearGradient id="paint1_linear_4_36" x1="216.782" y1="109.144" x2="216.782" y2="153.861" gradientUnits="userSpaceOnUse">
<stop stop-color="#BF1B39"/>
<stop offset="1" stop-color="#577AFA"/>
</linearGradient>
<linearGradient id="paint2_linear_4_36" x1="235.418" y1="110.609" x2="235.418" y2="118.209" gradientUnits="userSpaceOnUse">
<stop stop-color="#BF1B39"/>
<stop offset="1" stop-color="#577AFA"/>
</linearGradient>
<linearGradient id="paint3_linear_4_36" x1="231.647" y1="112.002" x2="231.647" y2="123.965" gradientUnits="userSpaceOnUse">
<stop stop-color="#BF1B39"/>
<stop offset="1" stop-color="#577AFA"/>
</linearGradient>
<linearGradient id="paint4_linear_4_36" x1="227.741" y1="115.06" x2="227.741" y2="127.803" gradientUnits="userSpaceOnUse">
<stop stop-color="#BF1B39"/>
<stop offset="1" stop-color="#577AFA"/>
</linearGradient>
<linearGradient id="paint5_linear_4_36" x1="224.015" y1="119.459" x2="224.015" y2="130.638" gradientUnits="userSpaceOnUse">
<stop stop-color="#BF1B39"/>
<stop offset="1" stop-color="#577AFA"/>
</linearGradient>
<linearGradient id="paint6_linear_4_36" x1="220.108" y1="125.352" x2="220.108" y2="131.638" gradientUnits="userSpaceOnUse">
<stop stop-color="#BF1B39"/>
<stop offset="1" stop-color="#577AFA"/>
</linearGradient>
<linearGradient id="paint7_linear_4_36" x1="213.78" y1="130.562" x2="213.78" y2="138.164" gradientUnits="userSpaceOnUse">
<stop stop-color="#BF1B39"/>
<stop offset="1" stop-color="#577AFA"/>
</linearGradient>
<linearGradient id="paint8_linear_4_36" x1="210.009" y1="131.956" x2="210.009" y2="143.918" gradientUnits="userSpaceOnUse">
<stop stop-color="#BF1B39"/>
<stop offset="1" stop-color="#577AFA"/>
</linearGradient>
<linearGradient id="paint9_linear_4_36" x1="206.103" y1="135.013" x2="206.103" y2="147.757" gradientUnits="userSpaceOnUse">
<stop stop-color="#BF1B39"/>
<stop offset="1" stop-color="#577AFA"/>
</linearGradient>
<linearGradient id="paint10_linear_4_36" x1="202.377" y1="139.413" x2="202.377" y2="150.591" gradientUnits="userSpaceOnUse">
<stop stop-color="#BF1B39"/>
<stop offset="1" stop-color="#577AFA"/>
</linearGradient>
<linearGradient id="paint11_linear_4_36" x1="198.469" y1="145.306" x2="198.469" y2="151.592" gradientUnits="userSpaceOnUse">
<stop stop-color="#BF1B39"/>
<stop offset="1" stop-color="#577AFA"/>
</linearGradient>
</defs>
</svg>
