<svg width="204" height="42" viewBox="0 0 204 42" fill="none" xmlns="http://www.w3.org/2000/svg">
<path d="M8.02132 33.2004L28.0253 34.0004C30.0058 34.1003 31.5903 32.6004 31.6892 30.6003L32.6795 5.70035C32.7786 3.30035 30.5009 1.50035 28.1242 2.20035L26.0447 2.70035C25.6485 2.80035 25.4504 3.10034 25.4504 3.50035C25.4504 4.00035 25.9456 4.40035 26.4407 4.30035L27.5301 4.00035C29.3126 3.40035 31.0951 4.80035 31.0951 6.70034L30.2039 29.8004C30.1048 31.3003 28.8174 32.5004 27.332 32.4003L8.81355 31.7003C7.32811 31.6003 6.13977 30.3003 6.2388 28.8003L6.33783 26.5003C6.33783 26.1003 6.04074 25.8003 5.64463 25.8003H5.44657C5.05045 25.8003 4.75336 26.1003 4.75336 26.5003L4.65433 29.6003C4.5553 31.5004 6.04074 33.1003 8.02132 33.2004Z" fill="white"/>
<path d="M4.06015 31.8002C4.06015 31.8002 4.15917 31.8002 4.06015 31.8002C4.55529 33.2002 5.84267 34.2002 7.3281 34.3001L29.3126 35.3002C32.5805 35.2002 33.1747 32.1002 33.2737 30.8001V30.3002L34.264 5.40017C34.3631 3.20017 32.7785 1.40017 30.699 1.10017C30.699 1.10017 36.5417 0.100167 36.5417 4.60017L35.2543 35.7001C35.2543 35.9002 35.1553 36.1001 34.9573 36.2002C34.7591 36.4001 34.5611 36.4001 34.3631 36.4001L31.1941 36.3002C30.798 36.3002 30.5999 36.7002 30.897 37.0002L32.2835 38.7002H26.4408L23.4699 36.4001C22.7767 36.2002 22.2815 36.0002 21.7864 36.0002L5.2485 35.2002C5.2485 35.2002 3.565 35.2002 4.06015 31.8002Z" fill="#BF1B39"/>
<path d="M33.1748 39.7003L14.0621 41.0004C13.3689 41.0004 12.6757 40.9003 11.9825 40.6004L9.60582 39.3003C9.11068 38.9004 9.40777 38.0003 10.0019 38.0003L33.1748 38.5004C33.2738 38.5004 33.3728 38.5004 33.4718 38.6003C33.868 38.9004 33.7689 39.6004 33.1748 39.7003Z" fill="#BF1B39"/>
<path d="M18.0232 1.20001H22.2815C23.1728 1.20001 23.965 2.00001 23.965 2.90002V7.20002C23.965 8.10001 23.1728 8.90001 22.2815 8.90001H18.0232C17.132 8.90001 16.3398 8.10001 16.3398 7.20002V2.80001C16.3398 1.90001 17.132 1.20001 18.0232 1.20001Z" fill="white"/>
<path d="M9.20974 18.3001V22.6002C9.20974 23.5001 8.41751 24.3002 7.52625 24.3002H3.16897C2.27771 24.3002 1.48547 23.5001 1.48547 22.6002V18.3001C1.48547 17.4001 2.27771 16.6002 3.16897 16.6002H7.42722C8.41751 16.6002 9.20974 17.4001 9.20974 18.3001Z" fill="white"/>
<path d="M3.16897 1.09998H9.01168C9.90294 1.09998 10.6952 1.89998 10.6952 2.79997V7.59998C10.6952 7.99998 10.8932 8.49997 11.1903 8.79998L15.6466 13.3C15.9437 13.6 16.3398 13.7999 16.835 13.7999H21.5883C22.4797 13.7999 23.2719 14.6 23.2719 15.4999V21.4C23.2719 22.3 22.4797 23.1 21.5883 23.1H15.7457C14.8544 23.1 14.0621 22.3 14.0621 21.4V16.5999C14.0621 16.1999 13.8641 15.7 13.5671 15.4L9.11071 10.9C8.81362 10.6 8.41751 10.4 7.92236 10.4H3.16897C2.27771 10.4 1.48547 9.59998 1.48547 8.69998V2.79997C1.48547 1.89998 2.27771 1.09998 3.16897 1.09998Z" fill="#BF1B39"/>
<path d="M40.8989 32.1002V6.30023H46.4447V27.3002H59.3183V32.1002H40.8989Z" fill="#BF1B39"/>
<path d="M66.9437 32.6002C66.2505 32.6002 65.6564 32.5002 64.8641 32.4002C64.1709 32.2001 63.4776 32.0002 62.7844 31.6002C62.0912 31.2002 61.5961 30.6002 61.2 29.9002C60.8038 29.2002 60.6058 28.2002 60.6058 27.1002C60.6058 25.7002 60.9029 24.6002 61.4971 23.7002C62.0912 22.8002 62.9826 22.1002 64.0718 21.6002C65.1612 21.1002 66.5476 20.7002 68.033 20.5002C69.6175 20.3001 71.3009 20.2002 73.1826 20.2002V18.7002C73.1826 18.1002 73.0835 17.6002 72.8855 17.2002C72.6874 16.8001 72.3903 16.4002 71.8952 16.2002C71.4 15.9002 70.8058 15.8002 70.0136 15.8002C69.2214 15.8002 68.5282 15.9002 68.033 16.1001C67.5379 16.3002 67.1417 16.6002 66.9437 16.9002C66.7456 17.2002 66.6467 17.6002 66.6467 17.9002V18.4002H61.5961C61.5961 18.3002 61.5961 18.2001 61.5961 18.0002C61.5961 17.9002 61.5961 17.7002 61.5961 17.6002C61.5961 16.4002 61.9923 15.4001 62.6855 14.6002C63.3787 13.8002 64.369 13.1002 65.6564 12.7002C66.9437 12.2002 68.4291 12.0002 70.1126 12.0002C71.8952 12.0002 73.4796 12.2002 74.6679 12.7002C75.8564 13.2002 76.8467 13.9002 77.5399 14.8002C78.233 15.7002 78.5302 16.9002 78.5302 18.3002V27.3001C78.5302 27.8002 78.6291 28.1002 78.9262 28.3002C79.2233 28.5002 79.5203 28.6002 79.8175 28.6002H81.0058V32.0002C80.7088 32.1002 80.4117 32.3002 79.8175 32.4002C79.3223 32.5002 78.6291 32.6002 77.9359 32.6002C77.2427 32.6002 76.5496 32.5002 76.0544 32.3002C75.4602 32.1002 75.0641 31.8002 74.6679 31.4002C74.2718 31.0002 74.0738 30.5002 73.8758 30.0002H73.5787C73.1826 30.5002 72.6874 31.0002 71.9941 31.4002C71.4 31.8002 70.7068 32.1002 69.9146 32.3002C68.9243 32.4002 68.033 32.6002 66.9437 32.6002ZM68.7262 28.6002C69.4194 28.6002 70.0136 28.5002 70.6078 28.3002C71.202 28.1002 71.5981 27.8002 71.9941 27.4002C72.3903 27.0002 72.6874 26.6001 72.8855 26.1002C73.0835 25.6002 73.1826 25.0002 73.1826 24.4002V23.3002C71.7961 23.3002 70.5088 23.4002 69.4194 23.6002C68.33 23.8001 67.4388 24.1002 66.8447 24.6002C66.2505 25.1002 65.8544 25.7002 65.8544 26.5002C65.8544 27.0002 65.9534 27.3001 66.1514 27.7002C66.3496 28.0001 66.7456 28.3002 67.1417 28.5002C67.6369 28.5002 68.132 28.6002 68.7262 28.6002Z" fill="#BF1B39"/>
<path d="M93.5825 32.6002C92.2951 32.6002 91.1068 32.3002 90.1165 31.8001C89.0272 31.3002 88.235 30.5002 87.5418 29.4001H87.2447L86.8486 32.1001H82.5903V4.90015H87.7398V14.5002H87.9378C88.3339 13.9001 88.8292 13.4002 89.4233 13.0002C90.0175 12.6001 90.6116 12.3001 91.4039 12.1001C92.0971 11.9001 92.8893 11.8001 93.7806 11.8001C95.3651 11.8001 96.6524 12.2001 97.8407 12.9001C99.0292 13.6001 99.9204 14.8002 100.515 16.3001C101.208 17.8001 101.505 19.8001 101.505 22.2002C101.505 24.6002 101.208 26.5001 100.515 28.1002C99.9204 29.6001 98.9301 30.8001 97.8407 31.5001C96.6524 32.2001 95.266 32.6002 93.5825 32.6002ZM91.998 28.3001C93.0874 28.3001 93.8796 28.1002 94.4738 27.7002C95.068 27.3001 95.5631 26.7002 95.7612 25.8001C96.0583 25.0002 96.1572 23.9002 96.1572 22.7001V21.8002C96.1572 20.5001 96.0583 19.5001 95.7612 18.7002C95.4641 17.9002 95.068 17.2002 94.4738 16.8001C93.8796 16.4001 93.0874 16.2002 91.998 16.2002C91.2059 16.2002 90.6116 16.3001 90.1165 16.6002C89.6213 16.9002 89.1262 17.2002 88.8292 17.7001C88.5321 18.2001 88.235 18.8001 88.0369 19.5001C87.8389 20.2001 87.7398 21.0001 87.7398 21.9001V22.6001C87.7398 23.8001 87.9378 24.8001 88.235 25.7002C88.5321 26.6001 89.0272 27.2001 89.6213 27.7002C90.2156 28.0001 91.0077 28.3001 91.998 28.3001Z" fill="#BF1B39"/>
<path d="M111.903 32.6003C110.517 32.6003 109.328 32.4002 108.239 32.1002C107.15 31.8002 106.357 31.4002 105.664 30.9003C104.971 30.4002 104.476 29.7002 104.08 29.0002C103.683 28.3002 103.584 27.4003 103.584 26.5002C103.584 26.4002 103.584 26.3003 103.584 26.2002C103.584 26.1002 103.584 26.0003 103.584 25.9003H107.447C107.447 26.0003 107.447 26.0003 107.447 26.1002C107.447 26.2002 107.447 26.2002 107.447 26.3003C107.447 27.1002 107.645 27.7003 108.041 28.2002C108.437 28.7003 109.031 29.0002 109.724 29.2002C110.417 29.4003 111.21 29.5003 112.101 29.5003C112.893 29.5003 113.487 29.4003 114.181 29.2002C114.775 29.0002 115.369 28.7003 115.765 28.4003C116.161 28.0003 116.359 27.5002 116.359 27.0003C116.359 26.2002 116.062 25.7002 115.567 25.3003C115.072 24.9003 114.379 24.6003 113.487 24.3002C112.596 24.1002 111.804 23.8003 110.814 23.5003C110.021 23.3002 109.13 23.0002 108.338 22.8003C107.546 22.5003 106.753 22.2002 106.159 21.8003C105.466 21.4003 104.971 20.8002 104.575 20.2002C104.179 19.5002 103.981 18.7002 103.981 17.8002C103.981 16.9003 104.179 16.1002 104.575 15.4002C104.971 14.7002 105.565 14.1003 106.258 13.6002C106.951 13.1002 107.843 12.8002 108.833 12.5002C109.823 12.2002 110.913 12.1002 112.101 12.1002C113.289 12.1002 114.379 12.2002 115.369 12.5002C116.359 12.8002 117.151 13.1002 117.746 13.6002C118.439 14.1003 118.934 14.6002 119.231 15.3002C119.627 16.0002 119.726 16.7002 119.726 17.4002C119.726 17.6003 119.726 17.7002 119.726 17.9003C119.726 18.1002 119.726 18.2002 119.726 18.2002H115.963V17.9003C115.963 17.4002 115.864 16.9003 115.567 16.5003C115.27 16.1002 114.874 15.8003 114.28 15.5003C113.685 15.2002 112.893 15.1003 111.903 15.1003C111.21 15.1003 110.715 15.2002 110.219 15.3002C109.724 15.4002 109.328 15.6002 109.031 15.8003C108.734 16.0002 108.437 16.2003 108.338 16.5003C108.14 16.8002 108.14 17.1002 108.14 17.4002C108.14 18.0002 108.338 18.4002 108.734 18.7002C109.13 19.0003 109.724 19.3003 110.318 19.5002C111.012 19.7003 111.705 19.9002 112.497 20.2002C113.388 20.5002 114.28 20.7003 115.171 21.0002C116.062 21.3002 116.953 21.6002 117.746 22.0002C118.538 22.4002 119.132 23.0002 119.627 23.7002C120.122 24.4002 120.32 25.3003 120.32 26.5002C120.32 27.6002 120.122 28.5002 119.726 29.3002C119.33 30.1003 118.736 30.7002 117.944 31.2003C117.151 31.7002 116.26 32.1002 115.27 32.3003C114.181 32.4002 113.091 32.6003 111.903 32.6003Z" fill="white"/>
<path d="M136.165 38.6V29.7001H135.868C135.471 30.4001 134.977 30.9 134.382 31.3C133.788 31.7001 133.095 32 132.402 32.2001C131.609 32.4001 130.817 32.5001 130.026 32.5001C128.54 32.5001 127.252 32.1001 126.064 31.4001C124.876 30.7001 123.984 29.5 123.39 28.0001C122.697 26.5001 122.4 24.5001 122.4 22.2C122.4 19.8001 122.697 17.8001 123.39 16.3001C123.984 14.8 124.876 13.6001 126.064 12.9001C127.252 12.2001 128.638 11.8 130.223 11.8C131.511 11.8 132.699 12.1001 133.689 12.6001C134.779 13.1 135.571 13.9001 136.264 15.0001H136.561L136.957 12.3001H140.126V38.6H136.165ZM131.312 29.2C132.105 29.2 132.798 29.1 133.392 28.8C133.986 28.5 134.482 28.2001 134.877 27.6001C135.274 27.1 135.67 26.4 135.868 25.5001C136.065 24.6 136.165 23.6 136.165 22.4001V21.9001C136.165 20.5001 135.967 19.3 135.67 18.2001C135.274 17.2 134.779 16.4001 134.085 15.9C133.392 15.4001 132.402 15.1 131.312 15.1C130.223 15.1 129.233 15.3001 128.54 15.8C127.847 16.3001 127.351 17.0001 126.955 17.9C126.559 18.9001 126.46 20.2001 126.46 21.7001V22.4001C126.46 23.9 126.658 25.1001 126.955 26.1001C127.252 27.1 127.847 27.8 128.54 28.3001C129.233 28.9001 130.223 29.2 131.312 29.2Z" fill="white"/>
<path d="M150.524 32.6004C148.643 32.6004 147.058 32.1004 145.968 31.1004C144.78 30.1004 144.186 28.3004 144.186 25.9004V12.3004H148.049V25.2004C148.049 26.0003 148.147 26.6004 148.346 27.1003C148.544 27.6004 148.841 28.0004 149.138 28.3004C149.535 28.6004 149.93 28.8003 150.326 28.9003C150.821 29.0004 151.317 29.1004 151.911 29.1004C152.802 29.1004 153.594 28.9003 154.386 28.4004C155.08 28.0004 155.674 27.3004 156.168 26.6004C156.664 25.8004 156.862 24.9004 156.862 23.9003V12.3004H160.724V32.1004H157.456L157.159 29.3004H156.862C156.367 30.0004 155.871 30.6003 155.179 31.1004C154.485 31.6003 153.792 31.9004 153 32.2004C152.306 32.4003 151.415 32.6004 150.524 32.6004Z" fill="white"/>
<path d="M164.883 8.90014V4.90015H168.745V8.90014H164.883ZM164.883 32.1001V12.3001H168.745V32.1001H164.883Z" fill="white"/>
<path d="M173.003 32.1001V12.3001H176.173L176.47 15.5H176.668C176.865 14.9001 177.162 14.3001 177.559 13.7C177.956 13.1 178.352 12.7001 178.946 12.3001C179.54 11.9001 180.233 11.8 181.124 11.8C181.52 11.8 181.917 11.8 182.214 11.9001C182.511 12.0001 182.808 12.0001 182.906 12.1001V15.8H181.62C180.827 15.8 180.134 15.9 179.54 16.2C178.946 16.5 178.45 16.8001 178.055 17.3C177.658 17.8001 177.361 18.4001 177.162 19.1001C176.965 19.8001 176.865 20.6001 176.865 21.5V32.1001H173.003Z" fill="white"/>
<path d="M192.909 32.6002C190.929 32.6002 189.244 32.2001 187.859 31.5001C186.471 30.8001 185.482 29.6001 184.788 28.1002C184.095 26.6001 183.699 24.6002 183.699 22.3001C183.699 19.9001 184.095 18.0002 184.788 16.4001C185.482 14.9001 186.471 13.8002 187.859 13.0002C189.244 12.3001 190.929 11.9001 193.008 11.9001C194.889 11.9001 196.474 12.3001 197.662 13.0002C198.95 13.7002 199.841 14.8002 200.535 16.3001C201.227 17.8001 201.524 19.6001 201.524 21.8002V23.3001H187.759C187.759 24.7001 188.056 25.9001 188.353 26.8001C188.75 27.7002 189.244 28.4002 190.037 28.9001C190.829 29.3001 191.72 29.6001 192.909 29.6001C193.602 29.6001 194.295 29.5002 194.889 29.3001C195.483 29.1002 195.979 28.8002 196.374 28.5002C196.771 28.1002 197.068 27.7002 197.265 27.2001C197.464 26.7002 197.563 26.1001 197.563 25.4001H201.326C201.326 26.6001 201.129 27.6001 200.732 28.5002C200.336 29.4002 199.742 30.2002 198.95 30.8001C198.157 31.4001 197.265 31.9002 196.276 32.2002C195.385 32.4001 194.197 32.6002 192.909 32.6002ZM187.859 20.3001H197.464C197.464 19.3002 197.365 18.5001 197.167 17.8001C196.968 17.1001 196.671 16.6002 196.276 16.2002C195.88 15.8002 195.385 15.5002 194.889 15.3001C194.295 15.1002 193.701 15.0001 193.008 15.0001C191.918 15.0001 191.027 15.2002 190.335 15.6001C189.641 16.0001 189.047 16.6002 188.65 17.4001C188.156 18.1001 187.957 19.1001 187.859 20.3001Z" fill="white"/>
</svg>
