<svg width="12" height="12" viewBox="0 0 12 12" fill="none" xmlns="http://www.w3.org/2000/svg">
<path id="Vector" d="M7.78125 0V2.8125C7.78125 3.85584 8.54271 4.72453 9.53906 4.89241V5.64844H9.1875V6.35156H9.53906V8.13281C9.53906 9.10207 8.75051 9.89062 7.78125 9.89062H6.84375V9.07031C6.84375 7.69437 6.02733 6.50569 4.85355 5.96276C5.69297 5.46975 6.25781 4.55749 6.25781 3.51562C6.25781 1.95187 4.98563 0.679688 3.42188 0.679688C1.85812 0.679688 0.585938 1.95187 0.585938 3.51562C0.585938 4.55749 1.15078 5.46975 1.9902 5.96276C0.816422 6.50569 0 7.69437 0 9.07031V12H6.84375V10.5938H7.78125C9.13821 10.5938 10.2422 9.48977 10.2422 8.13281V6.35156H10.5938V5.64844H10.2422V4.89241C11.2385 4.72453 12 3.85584 12 2.8125V0H7.78125ZM5.51944 3.12881C4.65291 2.96941 3.96809 2.28457 3.80869 1.41806C4.67522 1.57746 5.36004 2.26228 5.51944 3.12881ZM3.03506 1.41806C2.87566 2.28459 2.19082 2.96941 1.32431 3.12881C1.48371 2.26228 2.16853 1.57746 3.03506 1.41806ZM1.31405 3.84213C2.22248 3.72108 2.99627 3.16837 3.42188 2.39759C3.84748 3.16837 4.62127 3.72108 5.5297 3.84213C5.37209 4.86375 4.48692 5.64844 3.42188 5.64844C2.35683 5.64844 1.47166 4.86375 1.31405 3.84213ZM4.36669 6.52099C4.1813 6.85908 3.8243 7.07812 3.42188 7.07812C3.01943 7.07812 2.66243 6.85908 2.47706 6.52099C2.77148 6.41152 3.08979 6.35156 3.42188 6.35156C3.75396 6.35156 4.07227 6.41152 4.36669 6.52099ZM6.14062 11.2969H0.703125V9.07031C0.703125 8.15416 1.15866 7.34248 1.85508 6.84966C2.15972 7.41459 2.75287 7.78125 3.42188 7.78125C4.09085 7.78125 4.68401 7.41459 4.98867 6.84966C5.68507 7.34245 6.14062 8.15416 6.14062 9.07031V11.2969ZM11.2969 2.8125C11.2969 3.58791 10.666 4.21875 9.89062 4.21875C9.11522 4.21875 8.48438 3.58791 8.48438 2.8125V0.703125H11.2969V2.8125Z" fill="#526BFD"/>
</svg>
