<svg width="17" height="17" viewBox="0 0 17 17" fill="none" xmlns="http://www.w3.org/2000/svg">
<g clip-path="url(#clip0_408_1211)">
<path d="M16.565 7.7877C16.4221 7.59216 13.0163 3 8.66661 3C4.31688 3 0.911 7.59217 0.768218 7.78751C0.632843 7.97301 0.632843 8.2246 0.768218 8.4101C0.911 8.60564 4.31688 13.1978 8.66661 13.1978C13.0163 13.1978 16.4221 8.60561 16.565 8.41026C16.7006 8.22479 16.7006 7.97301 16.565 7.7877ZM8.66661 12.1429C5.46257 12.1429 2.68754 9.09495 1.86606 8.09854C2.68647 7.10126 5.4557 4.05494 8.66661 4.05494C11.8705 4.05494 14.6453 7.10232 15.4672 8.09926C14.6467 9.09651 11.8775 12.1429 8.66661 12.1429Z" fill="#7C8087"/>
<path d="M8.66662 4.89496C6.92155 4.89496 5.50177 6.33229 5.50177 8.09893C5.50177 9.86557 6.92155 11.3029 8.66662 11.3029C10.4117 11.3029 11.8315 9.86557 11.8315 8.09893C11.8315 6.33229 10.4117 4.89496 8.66662 4.89496ZM8.66662 10.2349C7.50318 10.2349 6.55674 9.27672 6.55674 8.09893C6.55674 6.92114 7.50321 5.96297 8.66662 5.96297C9.83002 5.96297 10.7765 6.92114 10.7765 8.09893C10.7765 9.27672 9.83006 10.2349 8.66662 10.2349Z" fill="#7C8087"/>
</g>
<defs>
<clipPath id="clip0_408_1211">
<rect width="16" height="16.1978" fill="white" transform="translate(0.666687)"/>
</clipPath>
</defs>
</svg>
